{"glyphs":{"0":{"ha":772,"x_min":29,"x_max":743,"o":"m 385 -12 q 121 115 213 -12 q 29 485 29 242 q 121 856 29 729 q 385 982 213 982 q 651 856 558 982 q 743 485 743 729 q 651 115 743 242 q 385 -12 558 -12 m 269 485 q 298 267 269 336 q 386 197 326 197 q 474 266 446 197 q 503 485 503 335 q 474 703 503 635 q 386 772 446 772 q 298 703 326 772 q 269 485 269 635 z "},"1":{"ha":403,"x_min":14,"x_max":350,"o":"m 125 0 l 125 760 l 14 760 l 14 969 l 350 969 l 350 0 l 125 0 z "},"2":{"ha":644,"x_min":19,"x_max":624,"o":"m 24 0 l 24 135 l 360 586 q 392 645 383 618 q 400 693 400 672 q 380 755 400 731 q 319 779 360 779 q 253 750 275 779 q 232 678 232 721 q 236 636 232 657 l 24 636 q 19 689 19 660 q 99 903 19 825 q 325 982 179 982 q 546 908 468 982 q 624 710 624 833 q 594 563 624 632 q 514 432 565 493 l 317 185 l 621 185 l 621 0 l 24 0 z "},"3":{"ha":690,"x_min":21,"x_max":668,"o":"m 340 -12 q 108 68 193 -12 q 21 292 24 149 l 238 292 q 269 218 240 244 q 340 192 297 192 q 415 222 386 192 q 444 308 444 253 q 412 393 444 363 q 306 424 379 424 l 181 424 l 181 550 l 346 764 l 44 764 l 44 969 l 631 969 l 631 826 l 435 574 q 607 486 546 558 q 668 297 668 414 q 581 72 668 156 q 340 -12 493 -12 z "},"4":{"ha":735,"x_min":26,"x_max":710,"o":"m 403 0 l 403 150 l 26 150 l 26 283 l 288 969 l 624 969 l 624 351 l 710 351 l 710 150 l 624 150 l 624 0 l 403 0 m 264 340 l 414 340 l 426 804 l 422 804 l 264 340 z "},"5":{"ha":708,"x_min":31,"x_max":676,"o":"m 347 -10 q 183 25 254 -10 q 71 126 111 60 q 31 286 31 193 l 247 286 q 278 218 250 243 q 346 193 307 193 q 419 224 388 193 q 451 319 451 254 q 419 417 451 388 q 344 447 386 447 q 246 385 274 447 l 43 385 l 65 969 l 636 969 l 636 764 l 268 764 l 257 593 l 260 593 q 324 619 290 611 q 394 626 358 626 q 533 594 469 626 q 637 493 597 561 q 676 318 676 425 q 635 138 676 211 q 519 28 593 65 q 347 -10 444 -10 z "},"6":{"ha":746,"x_min":19,"x_max":726,"o":"m 569 969 l 383 668 l 394 668 q 568 628 493 668 q 685 515 643 589 q 726 340 726 442 q 682 156 726 235 q 558 32 638 76 q 369 -12 478 -12 q 187 29 265 -12 q 64 149 108 71 q 19 333 19 226 q 31 435 19 385 q 72 545 43 485 q 149 686 100 606 l 317 969 l 569 969 m 247 342 q 282 234 247 275 q 372 193 317 193 q 464 234 429 193 q 499 342 499 275 q 464 450 499 408 q 372 492 429 492 q 282 451 317 492 q 247 342 247 410 z "},"7":{"ha":574,"x_min":18,"x_max":558,"o":"m 18 760 l 18 969 l 558 969 l 558 831 l 313 0 l 75 0 l 306 760 l 18 760 z "},"8":{"ha":722,"x_min":22,"x_max":700,"o":"m 361 -12 q 113 65 204 -12 q 22 272 22 143 q 62 419 22 357 q 175 515 101 481 l 175 519 q 85 605 117 553 q 54 726 54 657 q 137 913 54 843 q 361 982 219 982 q 585 913 503 982 q 668 726 668 843 q 637 605 668 657 q 547 519 606 553 l 547 515 q 660 419 621 481 q 700 272 700 358 q 609 65 700 143 q 361 -12 518 -12 m 247 297 q 278 215 247 246 q 361 183 310 183 q 444 215 414 183 q 475 297 475 246 q 444 381 475 349 q 361 414 414 414 q 278 381 310 414 q 247 297 247 349 m 268 694 q 294 624 268 651 q 361 597 319 597 q 429 624 403 597 q 456 694 456 651 q 430 765 456 739 q 361 790 404 790 q 293 765 318 790 q 268 694 268 739 z "},"9":{"ha":746,"x_min":19,"x_max":726,"o":"m 176 0 l 363 301 l 351 301 q 178 341 253 301 q 61 454 103 381 q 19 629 19 528 q 64 814 19 735 q 189 938 108 893 q 376 982 269 982 q 560 940 481 982 q 683 822 639 899 q 726 636 726 744 q 715 535 726 586 q 674 425 703 485 q 597 283 646 365 l 429 0 l 176 0 m 247 628 q 283 519 247 561 q 374 478 318 478 q 465 519 431 478 q 499 628 499 560 q 465 735 499 694 q 374 776 431 776 q 282 735 317 776 q 247 628 247 694 z "}," ":{"ha":224,"x_min":0,"x_max":0,"o":""}," ":{"ha":224,"x_min":0,"x_max":0,"o":""},"A":{"ha":699,"x_min":-3,"x_max":701,"o":"m -3 0 l 188 969 l 508 969 l 701 0 l 474 0 l 453 126 l 239 126 l 218 0 l -3 0 m 269 308 l 424 308 l 349 761 l 346 761 l 269 308 z "},"Á":{"ha":699,"x_min":-3,"x_max":701,"o":"m -3 0 l 188 969 l 508 969 l 701 0 l 474 0 l 453 126 l 239 126 l 218 0 l -3 0 m 250 1028 l 351 1254 l 575 1254 l 435 1028 l 250 1028 m 269 308 l 424 308 l 349 761 l 346 761 l 269 308 z "},"Ă":{"ha":699,"x_min":-3,"x_max":701,"o":"m -3 0 l 188 969 l 508 969 l 701 0 l 474 0 l 453 126 l 239 126 l 218 0 l -3 0 m 110 1254 l 263 1254 q 290 1191 268 1214 q 346 1168 311 1168 q 403 1191 382 1168 q 431 1254 425 1214 l 585 1254 q 516 1082 579 1144 q 346 1019 453 1019 q 178 1082 240 1019 q 110 1254 115 1144 m 269 308 l 424 308 l 349 761 l 346 761 l 269 308 z "},"Â":{"ha":699,"x_min":-3,"x_max":701,"o":"m -3 0 l 188 969 l 508 969 l 701 0 l 474 0 l 453 126 l 239 126 l 218 0 l -3 0 m 86 1028 l 247 1254 l 450 1254 l 608 1028 l 421 1028 l 350 1124 l 347 1124 l 275 1028 l 86 1028 m 269 308 l 424 308 l 349 761 l 346 761 l 269 308 z "},"Ä":{"ha":699,"x_min":-3,"x_max":701,"o":"m -3 0 l 188 969 l 508 969 l 701 0 l 474 0 l 453 126 l 239 126 l 218 0 l -3 0 m 107 1118 q 135 1189 107 1161 q 210 1217 164 1217 q 285 1190 257 1217 q 313 1118 313 1163 q 283 1047 313 1075 q 210 1019 254 1019 q 135 1047 164 1019 q 107 1118 107 1075 m 269 308 l 424 308 l 349 761 l 346 761 l 269 308 m 385 1118 q 414 1189 385 1161 q 488 1217 443 1217 q 563 1190 535 1217 q 590 1118 590 1163 q 562 1047 590 1075 q 488 1019 533 1019 q 414 1047 443 1019 q 385 1118 385 1075 z "},"À":{"ha":699,"x_min":-3,"x_max":701,"o":"m -3 0 l 188 969 l 508 969 l 701 0 l 474 0 l 453 126 l 239 126 l 218 0 l -3 0 m 121 1254 l 349 1254 l 450 1028 l 263 1028 l 121 1254 m 269 308 l 424 308 l 349 761 l 346 761 l 269 308 z "},"Ā":{"ha":699,"x_min":-3,"x_max":701,"o":"m -3 0 l 188 969 l 508 969 l 701 0 l 474 0 l 453 126 l 239 126 l 218 0 l -3 0 m 135 1042 l 135 1200 l 563 1200 l 563 1042 l 135 1042 m 269 308 l 424 308 l 349 761 l 346 761 l 269 308 z "},"Ą":{"ha":699,"x_min":-3,"x_max":701,"o":"m -3 0 l 188 969 l 508 969 l 701 0 l 694 0 q 634 -21 657 0 q 611 -67 611 -42 q 651 -101 611 -101 q 673 -99 663 -101 q 694 -92 683 -96 l 694 -232 q 607 -243 646 -243 q 483 -203 522 -243 q 444 -108 444 -162 q 492 0 444 -44 l 474 0 l 453 126 l 239 126 l 218 0 l -3 0 m 269 308 l 424 308 l 349 761 l 346 761 l 269 308 z "},"Å":{"ha":699,"x_min":-3,"x_max":701,"o":"m -3 0 l 188 969 l 508 969 l 701 0 l 474 0 l 453 126 l 239 126 l 218 0 l -3 0 m 179 1176 q 227 1293 179 1247 q 349 1339 275 1339 q 470 1293 422 1339 q 518 1176 518 1247 q 470 1060 518 1106 q 349 1015 422 1015 q 227 1060 275 1015 q 179 1176 179 1106 m 269 308 l 424 308 l 349 761 l 346 761 l 269 308 m 289 1176 q 306 1133 289 1150 q 349 1117 322 1117 q 392 1133 375 1117 q 408 1176 408 1150 q 392 1219 408 1203 q 349 1236 375 1236 q 306 1219 322 1236 q 289 1176 289 1203 z "},"Ã":{"ha":699,"x_min":-3,"x_max":701,"o":"m -3 0 l 188 969 l 508 969 l 701 0 l 474 0 l 453 126 l 239 126 l 218 0 l -3 0 m 72 1029 q 122 1185 72 1132 q 246 1238 171 1238 q 326 1223 292 1238 q 387 1194 360 1208 q 438 1179 414 1179 q 488 1235 481 1179 l 625 1235 q 576 1080 625 1133 q 451 1026 526 1026 q 372 1041 407 1026 q 310 1070 338 1056 q 260 1085 283 1085 q 210 1029 217 1085 l 72 1029 m 269 308 l 424 308 l 349 761 l 346 761 l 269 308 z "},"Æ":{"ha":875,"x_min":-3,"x_max":846,"o":"m -3 0 l 231 969 l 842 969 l 842 764 l 638 764 l 638 581 l 813 581 l 813 390 l 638 390 l 638 206 l 846 206 l 846 0 l 421 0 l 421 126 l 251 126 l 224 0 l -3 0 m 290 308 l 421 308 l 422 778 l 392 778 l 290 308 z "},"B":{"ha":671,"x_min":47,"x_max":660,"o":"m 47 0 l 47 969 l 361 969 q 558 905 488 969 q 628 731 628 840 q 590 594 628 646 q 497 519 551 543 l 497 517 q 615 437 569 494 q 660 279 660 379 q 585 77 660 154 q 371 0 511 0 l 47 0 m 272 183 l 328 183 q 405 213 378 183 q 432 299 432 243 q 405 384 432 354 q 328 414 378 414 l 272 414 l 272 183 m 272 592 l 317 592 q 387 618 361 592 q 413 690 413 644 q 387 764 413 738 q 317 790 361 790 l 272 790 l 272 592 z "},"C":{"ha":669,"x_min":17,"x_max":644,"o":"m 504 -10 q 251 51 361 -10 q 78 224 140 113 q 17 485 17 335 q 78 746 17 635 q 251 918 140 857 q 504 979 361 979 q 644 964 571 979 l 644 719 q 573 741 608 735 q 508 747 538 747 q 333 678 403 747 q 263 485 263 608 q 333 292 263 361 q 508 222 403 222 q 573 229 538 222 q 644 250 608 236 l 644 6 q 504 -10 571 -10 z "},"Ć":{"ha":669,"x_min":17,"x_max":679,"o":"m 504 -10 q 251 51 361 -10 q 78 224 140 113 q 17 485 17 335 q 78 746 17 635 q 251 918 140 857 q 504 979 361 979 q 644 964 571 979 l 644 719 q 573 741 608 735 q 508 747 538 747 q 333 678 403 747 q 263 485 263 608 q 333 292 263 361 q 508 222 403 222 q 573 229 538 222 q 644 250 608 236 l 644 6 q 504 -10 571 -10 m 354 1028 l 456 1254 l 679 1254 l 539 1028 l 354 1028 z "},"Č":{"ha":669,"x_min":17,"x_max":713,"o":"m 504 -10 q 251 51 361 -10 q 78 224 140 113 q 17 485 17 335 q 78 746 17 635 q 251 918 140 857 q 504 979 361 979 q 644 964 571 979 l 644 719 q 573 741 608 735 q 508 747 538 747 q 333 678 403 747 q 263 485 263 608 q 333 292 263 361 q 508 222 403 222 q 573 229 538 222 q 644 250 608 236 l 644 6 q 504 -10 571 -10 m 190 1254 l 378 1254 l 449 1157 l 451 1157 l 524 1254 l 713 1254 l 551 1028 l 349 1028 l 190 1254 z "},"Ç":{"ha":669,"x_min":17,"x_max":644,"o":"m 504 -10 l 492 -10 l 440 -215 l 244 -164 l 328 18 q 101 188 185 67 q 17 485 17 310 q 78 746 17 635 q 251 918 140 857 q 504 979 361 979 q 644 964 571 979 l 644 719 q 573 741 608 735 q 508 747 538 747 q 333 678 403 747 q 263 485 263 608 q 333 292 263 361 q 508 222 403 222 q 573 229 538 222 q 644 250 608 236 l 644 6 q 504 -10 571 -10 z "},"D":{"ha":847,"x_min":47,"x_max":831,"o":"m 47 0 l 47 969 l 350 969 q 606 910 499 969 q 772 743 714 851 q 831 485 831 635 q 772 227 831 336 q 606 59 714 118 q 350 0 499 0 l 47 0 m 272 211 l 347 211 q 529 288 467 211 q 592 485 592 364 q 529 682 592 606 q 347 758 467 758 l 272 758 l 272 211 z "},"Ð":{"ha":908,"x_min":25,"x_max":892,"o":"m 107 0 l 107 399 l 25 399 l 25 592 l 107 592 l 107 969 l 411 969 q 667 910 560 969 q 833 743 775 851 q 892 485 892 635 q 833 227 892 336 q 667 59 775 118 q 411 0 560 0 l 107 0 m 328 208 l 408 208 q 594 286 531 208 q 657 485 657 364 q 594 683 657 606 q 408 761 531 761 l 328 761 l 328 592 l 483 592 l 483 399 l 328 399 l 328 208 z "},"Ď":{"ha":847,"x_min":47,"x_max":831,"o":"m 47 0 l 47 969 l 350 969 q 606 910 499 969 q 772 743 714 851 q 831 485 831 635 q 772 227 831 336 q 606 59 714 118 q 350 0 499 0 l 47 0 m 63 1254 l 250 1254 l 321 1157 l 324 1157 l 396 1254 l 585 1254 l 424 1028 l 221 1028 l 63 1254 m 272 211 l 347 211 q 529 288 467 211 q 592 485 592 364 q 529 682 592 606 q 347 758 467 758 l 272 758 l 272 211 z "},"Đ":{"ha":908,"x_min":25,"x_max":892,"o":"m 107 0 l 107 399 l 25 399 l 25 592 l 107 592 l 107 969 l 411 969 q 667 910 560 969 q 833 743 775 851 q 892 485 892 635 q 833 227 892 336 q 667 59 775 118 q 411 0 560 0 l 107 0 m 328 208 l 408 208 q 594 286 531 208 q 657 485 657 364 q 594 683 657 606 q 408 761 531 761 l 328 761 l 328 592 l 483 592 l 483 399 l 328 399 l 328 208 z "},"E":{"ha":510,"x_min":47,"x_max":481,"o":"m 47 0 l 47 969 l 476 969 l 476 764 l 272 764 l 272 581 l 447 581 l 447 390 l 272 390 l 272 206 l 481 206 l 481 0 l 47 0 z "},"É":{"ha":510,"x_min":47,"x_max":492,"o":"m 47 0 l 47 969 l 476 969 l 476 764 l 272 764 l 272 581 l 447 581 l 447 390 l 272 390 l 272 206 l 481 206 l 481 0 l 47 0 m 167 1028 l 268 1254 l 492 1254 l 351 1028 l 167 1028 z "},"Ě":{"ha":510,"x_min":3,"x_max":525,"o":"m 47 0 l 47 969 l 476 969 l 476 764 l 272 764 l 272 581 l 447 581 l 447 390 l 272 390 l 272 206 l 481 206 l 481 0 l 47 0 m 3 1254 l 190 1254 l 261 1157 l 264 1157 l 336 1254 l 525 1254 l 364 1028 l 161 1028 l 3 1254 z "},"Ê":{"ha":510,"x_min":3,"x_max":525,"o":"m 47 0 l 47 969 l 476 969 l 476 764 l 272 764 l 272 581 l 447 581 l 447 390 l 272 390 l 272 206 l 481 206 l 481 0 l 47 0 m 3 1028 l 164 1254 l 367 1254 l 525 1028 l 338 1028 l 267 1124 l 264 1124 l 192 1028 l 3 1028 z "},"Ë":{"ha":510,"x_min":24,"x_max":507,"o":"m 47 0 l 47 969 l 476 969 l 476 764 l 272 764 l 272 581 l 447 581 l 447 390 l 272 390 l 272 206 l 481 206 l 481 0 l 47 0 m 24 1118 q 52 1189 24 1161 q 126 1217 81 1217 q 201 1190 174 1217 q 229 1118 229 1163 q 200 1047 229 1075 q 126 1019 171 1019 q 52 1047 81 1019 q 24 1118 24 1075 m 301 1118 q 331 1189 301 1161 q 404 1217 360 1217 q 479 1190 451 1217 q 507 1118 507 1163 q 478 1047 507 1075 q 404 1019 450 1019 q 331 1047 360 1019 q 301 1118 301 1075 z "},"Ė":{"ha":510,"x_min":47,"x_max":481,"o":"m 47 0 l 47 969 l 476 969 l 476 764 l 272 764 l 272 581 l 447 581 l 447 390 l 272 390 l 272 206 l 481 206 l 481 0 l 47 0 m 142 1136 q 176 1219 142 1189 q 265 1249 210 1249 q 356 1219 322 1249 q 389 1136 389 1189 q 356 1054 389 1085 q 265 1024 322 1024 q 176 1054 210 1024 q 142 1136 142 1085 z "},"È":{"ha":510,"x_min":38,"x_max":481,"o":"m 47 0 l 47 969 l 476 969 l 476 764 l 272 764 l 272 581 l 447 581 l 447 390 l 272 390 l 272 206 l 481 206 l 481 0 l 47 0 m 38 1254 l 265 1254 l 367 1028 l 179 1028 l 38 1254 z "},"Ē":{"ha":510,"x_min":47,"x_max":481,"o":"m 47 0 l 47 969 l 476 969 l 476 764 l 272 764 l 272 581 l 447 581 l 447 390 l 272 390 l 272 206 l 481 206 l 481 0 l 47 0 m 51 1042 l 51 1200 l 479 1200 l 479 1042 l 51 1042 z "},"Ę":{"ha":510,"x_min":47,"x_max":481,"o":"m 47 0 l 47 969 l 476 969 l 476 764 l 272 764 l 272 581 l 447 581 l 447 390 l 272 390 l 272 206 l 481 206 l 481 0 q 420 -21 443 0 q 397 -67 397 -42 q 438 -101 397 -101 q 459 -99 449 -101 q 481 -92 469 -96 l 481 -232 q 393 -243 432 -243 q 269 -203 308 -243 q 231 -108 231 -162 q 278 0 231 -44 l 47 0 z "},"F":{"ha":458,"x_min":47,"x_max":438,"o":"m 47 0 l 47 969 l 438 969 l 438 757 l 272 757 l 272 563 l 421 563 l 421 358 l 272 358 l 272 0 l 47 0 z "},"G":{"ha":871,"x_min":17,"x_max":836,"o":"m 513 -12 q 248 49 360 -12 q 76 223 136 111 q 17 483 17 335 q 79 747 17 635 q 253 920 142 858 q 514 982 365 982 q 646 969 583 982 q 764 938 708 957 l 764 697 q 646 745 708 729 q 524 761 583 761 q 325 688 400 761 q 250 483 250 615 q 322 278 250 353 q 517 204 394 204 q 621 217 567 204 l 621 381 l 429 381 l 429 576 l 836 576 l 836 61 q 671 5 756 22 q 513 -12 586 -12 z "},"Ģ":{"ha":871,"x_min":17,"x_max":836,"o":"m 513 -12 q 248 49 360 -12 q 76 223 136 111 q 17 483 17 335 q 79 747 17 635 q 253 920 142 858 q 514 982 365 982 q 646 969 583 982 q 764 938 708 957 l 764 697 q 646 745 708 729 q 524 761 583 761 q 325 688 400 761 q 250 483 250 615 q 322 278 250 353 q 517 204 394 204 q 621 217 567 204 l 621 381 l 429 381 l 429 576 l 836 576 l 836 61 q 671 5 756 22 q 513 -12 586 -12 m 376 -243 l 404 -51 l 599 -51 l 542 -243 l 376 -243 z "},"H":{"ha":704,"x_min":47,"x_max":657,"o":"m 432 0 l 432 393 l 272 393 l 272 0 l 47 0 l 47 969 l 272 969 l 272 601 l 432 601 l 432 969 l 657 969 l 657 0 l 432 0 z "},"I":{"ha":319,"x_min":47,"x_max":272,"o":"m 47 0 l 47 969 l 272 969 l 272 0 l 47 0 z "},"Ĳ":{"ha":782,"x_min":47,"x_max":739,"o":"m 47 0 l 47 969 l 272 969 l 272 0 l 47 0 m 329 14 l 329 253 q 449 204 399 204 q 514 278 514 204 l 514 969 l 739 969 l 739 246 q 672 53 739 119 q 481 -12 606 -12 q 329 14 400 -12 z "},"Í":{"ha":319,"x_min":47,"x_max":386,"o":"m 47 0 l 47 969 l 272 969 l 272 0 l 47 0 m 61 1028 l 163 1254 l 386 1254 l 246 1028 l 61 1028 z "},"Î":{"ha":319,"x_min":-103,"x_max":419,"o":"m 47 0 l 47 969 l 272 969 l 272 0 l 47 0 m -103 1028 l 58 1254 l 261 1254 l 419 1028 l 232 1028 l 161 1124 l 158 1124 l 86 1028 l -103 1028 z "},"Ï":{"ha":319,"x_min":-82,"x_max":401,"o":"m 47 0 l 47 969 l 272 969 l 272 0 l 47 0 m -82 1118 q -53 1189 -82 1161 q 21 1217 -25 1217 q 96 1190 68 1217 q 124 1118 124 1163 q 94 1047 124 1075 q 21 1019 65 1019 q -53 1047 -25 1019 q -82 1118 -82 1075 m 196 1118 q 225 1189 196 1161 q 299 1217 254 1217 q 374 1190 346 1217 q 401 1118 401 1163 q 373 1047 401 1075 q 299 1019 344 1019 q 225 1047 254 1019 q 196 1118 196 1075 z "},"Ì":{"ha":319,"x_min":-68,"x_max":272,"o":"m 47 0 l 47 969 l 272 969 l 272 0 l 47 0 m -68 1254 l 160 1254 l 261 1028 l 74 1028 l -68 1254 z "},"Ī":{"ha":319,"x_min":-54,"x_max":374,"o":"m 47 0 l 47 969 l 272 969 l 272 0 l 47 0 m -54 1042 l -54 1200 l 374 1200 l 374 1042 l -54 1042 z "},"Į":{"ha":319,"x_min":22,"x_max":272,"o":"m 47 0 l 47 969 l 272 969 l 272 0 q 212 -21 235 0 q 189 -67 189 -42 q 229 -101 189 -101 q 251 -99 240 -101 q 272 -92 261 -96 l 272 -232 q 185 -243 224 -243 q 61 -203 100 -243 q 22 -108 22 -162 q 69 0 22 -44 l 47 0 z "},"J":{"ha":463,"x_min":10,"x_max":419,"o":"m 161 -12 q 10 14 81 -12 l 10 253 q 129 204 79 204 q 194 278 194 204 l 194 969 l 419 969 l 419 246 q 353 53 419 119 q 161 -12 286 -12 z "},"K":{"ha":681,"x_min":47,"x_max":692,"o":"m 47 0 l 47 969 l 272 969 l 272 563 l 275 563 l 451 969 l 692 969 l 478 531 q 601 445 560 510 q 642 279 642 381 l 642 0 l 415 0 l 415 251 q 391 355 415 324 q 308 386 367 386 l 272 386 l 272 0 l 47 0 z "},"Ķ":{"ha":681,"x_min":47,"x_max":692,"o":"m 47 0 l 47 969 l 272 969 l 272 563 l 275 563 l 451 969 l 692 969 l 478 531 q 601 445 560 510 q 642 279 642 381 l 642 0 l 415 0 l 415 251 q 391 355 415 324 q 308 386 367 386 l 272 386 l 272 0 l 47 0 m 219 -243 l 247 -51 l 442 -51 l 385 -243 l 219 -243 z "},"L":{"ha":442,"x_min":47,"x_max":431,"o":"m 47 0 l 47 969 l 272 969 l 272 210 l 431 210 l 431 0 l 47 0 z "},"Ĺ":{"ha":442,"x_min":47,"x_max":431,"o":"m 47 0 l 47 969 l 272 969 l 272 210 l 431 210 l 431 0 l 47 0 m 61 1028 l 163 1254 l 386 1254 l 246 1028 l 61 1028 z "},"Ľ":{"ha":442,"x_min":47,"x_max":513,"o":"m 47 0 l 47 969 l 272 969 l 272 210 l 431 210 l 431 0 l 47 0 m 329 808 l 329 1086 l 513 1086 l 467 808 l 329 808 z "},"Ļ":{"ha":442,"x_min":47,"x_max":431,"o":"m 47 0 l 47 969 l 272 969 l 272 210 l 431 210 l 431 0 l 47 0 m 114 -243 l 142 -51 l 336 -51 l 279 -243 l 114 -243 z "},"Ł":{"ha":479,"x_min":14,"x_max":469,"o":"m 14 383 l 14 585 l 85 615 l 85 969 l 310 969 l 310 710 l 438 764 l 438 561 l 310 507 l 310 210 l 469 210 l 469 0 l 85 0 l 85 413 l 14 383 z "},"M":{"ha":1068,"x_min":26,"x_max":1042,"o":"m 26 0 l 83 969 l 410 969 l 535 369 l 538 369 l 657 969 l 985 969 l 1042 0 l 818 0 l 789 710 l 786 710 l 631 0 l 432 0 l 275 710 l 271 710 l 243 0 l 26 0 z "},"N":{"ha":768,"x_min":47,"x_max":721,"o":"m 47 0 l 47 969 l 322 969 l 529 329 l 533 329 l 526 969 l 721 969 l 721 0 l 447 0 l 240 638 l 238 638 l 242 0 l 47 0 z "},"Ń":{"ha":768,"x_min":47,"x_max":721,"o":"m 47 0 l 47 969 l 322 969 l 529 329 l 533 329 l 526 969 l 721 969 l 721 0 l 447 0 l 240 638 l 238 638 l 242 0 l 47 0 m 288 1028 l 389 1254 l 613 1254 l 472 1028 l 288 1028 z "},"Ň":{"ha":768,"x_min":47,"x_max":721,"o":"m 47 0 l 47 969 l 322 969 l 529 329 l 533 329 l 526 969 l 721 969 l 721 0 l 447 0 l 240 638 l 238 638 l 242 0 l 47 0 m 124 1254 l 311 1254 l 382 1157 l 385 1157 l 457 1254 l 646 1254 l 485 1028 l 282 1028 l 124 1254 z "},"Ņ":{"ha":768,"x_min":47,"x_max":721,"o":"m 47 0 l 47 969 l 322 969 l 529 329 l 533 329 l 526 969 l 721 969 l 721 0 l 447 0 l 240 638 l 238 638 l 242 0 l 47 0 m 253 -243 l 281 -51 l 475 -51 l 418 -243 l 253 -243 z "},"Ñ":{"ha":768,"x_min":47,"x_max":721,"o":"m 47 0 l 47 969 l 322 969 l 529 329 l 533 329 l 526 969 l 721 969 l 721 0 l 447 0 l 240 638 l 238 638 l 242 0 l 47 0 m 110 1029 q 159 1185 110 1132 q 283 1238 208 1238 q 363 1223 329 1238 q 424 1194 397 1208 q 475 1179 451 1179 q 525 1235 518 1179 l 663 1235 q 613 1080 663 1133 q 489 1026 564 1026 q 410 1041 444 1026 q 348 1070 375 1056 q 297 1085 321 1085 q 247 1029 254 1085 l 110 1029 z "},"Ŋ":{"ha":756,"x_min":47,"x_max":708,"o":"m 463 -194 q 317 -169 383 -194 l 317 60 q 425 14 375 14 q 460 22 446 14 q 475 51 475 31 q 472 71 475 61 q 464 93 469 81 l 243 617 l 240 617 l 244 0 l 47 0 l 47 969 l 293 969 l 513 435 l 515 435 l 513 969 l 708 969 l 708 88 q 647 -126 708 -57 q 463 -194 585 -194 z "},"O":{"ha":1014,"x_min":17,"x_max":997,"o":"m 506 -12 q 249 50 360 -12 q 78 224 139 113 q 17 485 17 336 q 78 745 17 633 q 249 919 139 857 q 506 982 360 982 q 763 919 653 982 q 935 745 874 857 q 997 485 997 633 q 935 225 997 338 q 763 50 874 113 q 506 -12 653 -12 m 260 485 q 291 344 260 406 q 378 249 322 283 q 507 214 433 214 q 636 249 581 214 q 724 344 692 283 q 756 485 756 406 q 724 626 756 565 q 637 721 693 686 q 507 756 581 756 q 378 721 433 756 q 291 626 322 686 q 260 485 260 565 z "},"Ó":{"ha":1014,"x_min":17,"x_max":997,"o":"m 506 -12 q 249 50 360 -12 q 78 224 139 113 q 17 485 17 336 q 78 745 17 633 q 249 919 139 857 q 506 982 360 982 q 763 919 653 982 q 935 745 874 857 q 997 485 997 633 q 935 225 997 338 q 763 50 874 113 q 506 -12 653 -12 m 260 485 q 291 344 260 406 q 378 249 322 283 q 507 214 433 214 q 636 249 581 214 q 724 344 692 283 q 756 485 756 406 q 724 626 756 565 q 637 721 693 686 q 507 756 581 756 q 378 721 433 756 q 291 626 322 686 q 260 485 260 565 m 407 1028 l 508 1254 l 732 1254 l 592 1028 l 407 1028 z "},"Ô":{"ha":1014,"x_min":17,"x_max":997,"o":"m 506 -12 q 249 50 360 -12 q 78 224 139 113 q 17 485 17 336 q 78 745 17 633 q 249 919 139 857 q 506 982 360 982 q 763 919 653 982 q 935 745 874 857 q 997 485 997 633 q 935 225 997 338 q 763 50 874 113 q 506 -12 653 -12 m 243 1028 l 404 1254 l 607 1254 l 765 1028 l 578 1028 l 507 1124 l 504 1124 l 432 1028 l 243 1028 m 260 485 q 291 344 260 406 q 378 249 322 283 q 507 214 433 214 q 636 249 581 214 q 724 344 692 283 q 756 485 756 406 q 724 626 756 565 q 637 721 693 686 q 507 756 581 756 q 378 721 433 756 q 291 626 322 686 q 260 485 260 565 z "},"Ö":{"ha":1014,"x_min":17,"x_max":997,"o":"m 506 -12 q 249 50 360 -12 q 78 224 139 113 q 17 485 17 336 q 78 745 17 633 q 249 919 139 857 q 506 982 360 982 q 763 919 653 982 q 935 745 874 857 q 997 485 997 633 q 935 225 997 338 q 763 50 874 113 q 506 -12 653 -12 m 260 485 q 291 344 260 406 q 378 249 322 283 q 507 214 433 214 q 636 249 581 214 q 724 344 692 283 q 756 485 756 406 q 724 626 756 565 q 637 721 693 686 q 507 756 581 756 q 378 721 433 756 q 291 626 322 686 q 260 485 260 565 m 264 1118 q 292 1189 264 1161 q 367 1217 321 1217 q 442 1190 414 1217 q 469 1118 469 1163 q 440 1047 469 1075 q 367 1019 411 1019 q 292 1047 321 1019 q 264 1118 264 1075 m 542 1118 q 571 1189 542 1161 q 644 1217 600 1217 q 719 1190 692 1217 q 747 1118 747 1163 q 719 1047 747 1075 q 644 1019 690 1019 q 571 1047 600 1019 q 542 1118 542 1075 z "},"Ò":{"ha":1014,"x_min":17,"x_max":997,"o":"m 506 -12 q 249 50 360 -12 q 78 224 139 113 q 17 485 17 336 q 78 745 17 633 q 249 919 139 857 q 506 982 360 982 q 763 919 653 982 q 935 745 874 857 q 997 485 997 633 q 935 225 997 338 q 763 50 874 113 q 506 -12 653 -12 m 260 485 q 291 344 260 406 q 378 249 322 283 q 507 214 433 214 q 636 249 581 214 q 724 344 692 283 q 756 485 756 406 q 724 626 756 565 q 637 721 693 686 q 507 756 581 756 q 378 721 433 756 q 291 626 322 686 q 260 485 260 565 m 278 1254 l 506 1254 l 607 1028 l 419 1028 l 278 1254 z "},"Ő":{"ha":1014,"x_min":17,"x_max":997,"o":"m 506 -12 q 249 50 360 -12 q 78 224 139 113 q 17 485 17 336 q 78 745 17 633 q 249 919 139 857 q 506 982 360 982 q 763 919 653 982 q 935 745 874 857 q 997 485 997 633 q 935 225 997 338 q 763 50 874 113 q 506 -12 653 -12 m 260 485 q 291 344 260 406 q 378 249 322 283 q 507 214 433 214 q 636 249 581 214 q 724 344 692 283 q 756 485 756 406 q 724 626 756 565 q 637 721 693 686 q 507 756 581 756 q 378 721 433 756 q 291 626 322 686 q 260 485 260 565 m 296 1028 l 371 1254 l 560 1254 l 457 1028 l 296 1028 m 540 1028 l 639 1254 l 835 1254 l 707 1028 l 540 1028 z "},"Ō":{"ha":1014,"x_min":17,"x_max":997,"o":"m 506 -12 q 249 50 360 -12 q 78 224 139 113 q 17 485 17 336 q 78 745 17 633 q 249 919 139 857 q 506 982 360 982 q 763 919 653 982 q 935 745 874 857 q 997 485 997 633 q 935 225 997 338 q 763 50 874 113 q 506 -12 653 -12 m 260 485 q 291 344 260 406 q 378 249 322 283 q 507 214 433 214 q 636 249 581 214 q 724 344 692 283 q 756 485 756 406 q 724 626 756 565 q 637 721 693 686 q 507 756 581 756 q 378 721 433 756 q 291 626 322 686 q 260 485 260 565 m 292 1042 l 292 1200 l 719 1200 l 719 1042 l 292 1042 z "},"Ø":{"ha":1014,"x_min":17,"x_max":997,"o":"m 147 -65 l 29 32 l 128 150 q 46 299 75 215 q 17 485 17 383 q 78 745 17 633 q 249 919 139 857 q 506 982 360 982 q 647 965 581 982 q 768 917 713 949 l 868 1035 l 985 938 l 885 818 q 968 669 939 754 q 997 485 997 585 q 935 225 997 338 q 763 50 874 113 q 506 -12 653 -12 q 366 5 432 -12 q 246 53 300 22 l 147 -65 m 247 485 q 282 335 247 400 l 622 742 q 507 767 572 767 q 372 731 431 767 q 281 631 314 694 q 247 485 247 568 m 392 228 q 507 203 444 203 q 642 238 583 203 q 733 338 700 274 q 767 485 767 401 q 758 565 767 528 q 732 635 749 603 l 392 228 z "},"Õ":{"ha":1014,"x_min":17,"x_max":997,"o":"m 506 -12 q 249 50 360 -12 q 78 224 139 113 q 17 485 17 336 q 78 745 17 633 q 249 919 139 857 q 506 982 360 982 q 763 919 653 982 q 935 745 874 857 q 997 485 997 633 q 935 225 997 338 q 763 50 874 113 q 506 -12 653 -12 m 229 1029 q 278 1185 229 1132 q 403 1238 328 1238 q 483 1223 449 1238 q 544 1194 517 1208 q 594 1179 571 1179 q 644 1235 638 1179 l 782 1235 q 733 1080 782 1133 q 608 1026 683 1026 q 529 1041 564 1026 q 467 1070 494 1056 q 417 1085 440 1085 q 367 1029 374 1085 l 229 1029 m 260 485 q 291 344 260 406 q 378 249 322 283 q 507 214 433 214 q 636 249 581 214 q 724 344 692 283 q 756 485 756 406 q 724 626 756 565 q 637 721 693 686 q 507 756 581 756 q 378 721 433 756 q 291 626 322 686 q 260 485 260 565 z "},"Œ":{"ha":1218,"x_min":17,"x_max":1189,"o":"m 496 -12 q 247 50 354 -12 q 78 224 139 113 q 17 485 17 336 q 78 745 17 633 q 247 919 139 857 q 496 982 354 982 q 664 954 590 982 q 790 875 738 926 l 794 875 l 794 969 l 1185 969 l 1185 764 l 981 764 l 981 581 l 1157 581 l 1157 390 l 981 390 l 981 206 l 1189 206 l 1189 0 l 794 0 l 794 94 l 790 94 q 664 15 738 43 q 496 -12 590 -12 m 260 485 q 291 344 260 406 q 378 249 322 283 q 507 214 433 214 q 636 249 581 214 q 724 344 692 283 q 756 485 756 406 q 724 626 756 565 q 637 721 693 686 q 507 756 581 756 q 378 721 433 756 q 291 626 322 686 q 260 485 260 565 z "},"P":{"ha":656,"x_min":47,"x_max":646,"o":"m 47 0 l 47 969 l 319 969 q 559 883 472 969 q 646 642 646 796 q 559 398 646 486 q 319 310 472 310 l 272 310 l 272 0 l 47 0 m 272 500 l 296 500 q 424 639 424 500 q 296 779 424 779 l 272 779 l 272 500 z "},"Þ":{"ha":656,"x_min":47,"x_max":646,"o":"m 47 0 l 47 969 l 272 969 l 272 829 l 322 829 q 560 742 474 829 q 646 499 646 656 q 560 254 646 343 q 322 165 475 165 l 272 165 l 272 0 l 47 0 m 272 356 l 296 356 q 424 496 424 356 q 296 639 424 639 l 272 639 l 272 356 z "},"Q":{"ha":1014,"x_min":17,"x_max":997,"o":"m 696 -100 l 643 3 q 576 -8 611 -4 q 506 -12 542 -12 q 249 50 360 -12 q 78 224 139 113 q 17 485 17 336 q 78 745 17 633 q 249 919 139 857 q 506 982 360 982 q 763 919 653 982 q 935 745 874 857 q 997 485 997 633 q 952 258 997 358 q 825 92 907 158 l 939 -100 l 696 -100 m 256 478 q 288 332 256 394 q 376 235 319 269 q 507 200 433 200 q 524 200 515 200 q 540 201 532 200 l 392 492 l 590 492 l 706 296 q 760 478 760 369 q 728 623 760 561 q 639 719 696 685 q 507 753 582 753 q 376 719 433 753 q 288 623 319 685 q 256 478 256 561 z "},"R":{"ha":675,"x_min":47,"x_max":643,"o":"m 47 0 l 47 969 l 376 969 q 572 903 500 969 q 643 715 643 836 q 602 569 643 626 q 497 490 561 511 l 497 488 q 605 415 568 469 q 642 264 642 361 l 642 0 l 415 0 l 415 258 q 393 360 415 331 q 322 390 371 390 l 272 390 l 272 0 l 47 0 m 272 586 l 325 586 q 394 614 369 586 q 419 690 419 642 q 394 765 419 739 q 325 790 369 790 l 272 790 l 272 586 z "},"Ŕ":{"ha":675,"x_min":47,"x_max":643,"o":"m 47 0 l 47 969 l 376 969 q 572 903 500 969 q 643 715 643 836 q 602 569 643 626 q 497 490 561 511 l 497 488 q 605 415 568 469 q 642 264 642 361 l 642 0 l 415 0 l 415 258 q 393 360 415 331 q 322 390 371 390 l 272 390 l 272 0 l 47 0 m 208 1028 l 310 1254 l 533 1254 l 393 1028 l 208 1028 m 272 586 l 325 586 q 394 614 369 586 q 419 690 419 642 q 394 765 419 739 q 325 790 369 790 l 272 790 l 272 586 z "},"Ř":{"ha":675,"x_min":44,"x_max":643,"o":"m 47 0 l 47 969 l 376 969 q 572 903 500 969 q 643 715 643 836 q 602 569 643 626 q 497 490 561 511 l 497 488 q 605 415 568 469 q 642 264 642 361 l 642 0 l 415 0 l 415 258 q 393 360 415 331 q 322 390 371 390 l 272 390 l 272 0 l 47 0 m 44 1254 l 232 1254 l 303 1157 l 306 1157 l 378 1254 l 567 1254 l 406 1028 l 203 1028 l 44 1254 m 272 586 l 325 586 q 394 614 369 586 q 419 690 419 642 q 394 765 419 739 q 325 790 369 790 l 272 790 l 272 586 z "},"Ŗ":{"ha":675,"x_min":47,"x_max":643,"o":"m 47 0 l 47 969 l 376 969 q 572 903 500 969 q 643 715 643 836 q 602 569 643 626 q 497 490 561 511 l 497 488 q 605 415 568 469 q 642 264 642 361 l 642 0 l 415 0 l 415 258 q 393 360 415 331 q 322 390 371 390 l 272 390 l 272 0 l 47 0 m 221 -243 l 249 -51 l 443 -51 l 386 -243 l 221 -243 m 272 586 l 325 586 q 394 614 369 586 q 419 690 419 642 q 394 765 419 739 q 325 790 369 790 l 272 790 l 272 586 z "},"S":{"ha":511,"x_min":19,"x_max":501,"o":"m 215 -12 q 118 -3 168 -12 q 24 24 68 6 l 24 274 q 194 200 128 200 q 247 216 225 200 q 268 269 268 232 q 256 319 268 296 q 224 367 244 342 l 111 501 q 19 729 19 601 q 94 916 19 850 q 289 982 168 982 q 442 958 360 982 l 442 747 q 369 779 404 767 q 307 792 335 792 q 260 776 278 792 q 242 733 242 761 q 276 658 242 697 l 382 529 q 472 402 442 463 q 501 261 501 342 q 424 59 501 131 q 215 -12 346 -12 z "},"Ś":{"ha":511,"x_min":19,"x_max":501,"o":"m 215 -12 q 118 -3 168 -12 q 24 24 68 6 l 24 274 q 194 200 128 200 q 247 216 225 200 q 268 269 268 232 q 256 319 268 296 q 224 367 244 342 l 111 501 q 19 729 19 601 q 94 916 19 850 q 289 982 168 982 q 442 958 360 982 l 442 747 q 369 779 404 767 q 307 792 335 792 q 260 776 278 792 q 242 733 242 761 q 276 658 242 697 l 382 529 q 472 402 442 463 q 501 261 501 342 q 424 59 501 131 q 215 -12 346 -12 m 147 1028 l 249 1254 l 472 1254 l 332 1028 l 147 1028 z "},"Š":{"ha":511,"x_min":-17,"x_max":506,"o":"m 215 -12 q 118 -3 168 -12 q 24 24 68 6 l 24 274 q 194 200 128 200 q 247 216 225 200 q 268 269 268 232 q 256 319 268 296 q 224 367 244 342 l 111 501 q 19 729 19 601 q 94 916 19 850 q 289 982 168 982 q 442 958 360 982 l 442 747 q 369 779 404 767 q 307 792 335 792 q 260 776 278 792 q 242 733 242 761 q 276 658 242 697 l 382 529 q 472 402 442 463 q 501 261 501 342 q 424 59 501 131 q 215 -12 346 -12 m -17 1254 l 171 1254 l 242 1157 l 244 1157 l 317 1254 l 506 1254 l 344 1028 l 142 1028 l -17 1254 z "},"Ş":{"ha":511,"x_min":19,"x_max":501,"o":"m 271 -215 l 75 -164 l 146 -8 q 24 24 81 0 l 24 274 q 194 200 128 200 q 247 216 225 200 q 268 269 268 232 q 256 319 268 296 q 224 367 244 342 l 111 501 q 19 729 19 601 q 94 916 19 850 q 289 982 168 982 q 442 958 360 982 l 442 747 q 369 779 404 767 q 307 792 335 792 q 260 776 278 792 q 242 733 242 761 q 276 658 242 697 l 382 529 q 472 402 442 463 q 501 261 501 342 q 454 94 501 160 q 325 3 407 29 l 271 -215 z "},"ẞ":{"ha":767,"x_min":47,"x_max":750,"o":"m 432 -6 q 372 -1 400 -6 q 321 8 344 3 l 321 215 q 414 193 368 193 q 498 223 467 193 q 529 310 529 253 q 498 396 529 363 q 401 429 467 429 l 333 429 l 333 568 l 457 775 l 269 775 l 269 0 l 47 0 l 47 969 l 701 969 l 701 826 l 543 569 q 696 479 642 547 q 750 300 750 411 q 710 137 750 206 q 599 31 671 68 q 432 -6 528 -6 z "},"T":{"ha":500,"x_min":10,"x_max":489,"o":"m 138 0 l 138 760 l 10 760 l 10 969 l 489 969 l 489 760 l 363 760 l 363 0 l 138 0 z "},"Ŧ":{"ha":500,"x_min":10,"x_max":489,"o":"m 138 0 l 138 390 l 54 390 l 54 581 l 138 581 l 138 764 l 10 764 l 10 969 l 489 969 l 489 764 l 363 764 l 363 581 l 446 581 l 446 390 l 363 390 l 363 0 l 138 0 z "},"Ť":{"ha":500,"x_min":-12,"x_max":510,"o":"m 138 0 l 138 760 l 10 760 l 10 969 l 489 969 l 489 760 l 363 760 l 363 0 l 138 0 m -12 1254 l 175 1254 l 246 1157 l 249 1157 l 321 1254 l 510 1254 l 349 1028 l 146 1028 l -12 1254 z "},"Ţ":{"ha":500,"x_min":10,"x_max":489,"o":"m 10 760 l 10 969 l 489 969 l 489 760 l 363 760 l 363 0 l 281 0 l 226 -215 l 31 -164 l 138 71 l 138 760 l 10 760 z "},"U":{"ha":693,"x_min":43,"x_max":651,"o":"m 347 -12 q 122 69 201 -12 q 43 293 43 150 l 43 969 l 267 969 l 267 293 q 288 226 267 250 q 347 201 308 201 q 406 226 386 201 q 426 293 426 250 l 426 969 l 651 969 l 651 293 q 572 69 651 150 q 347 -12 493 -12 z "},"Ú":{"ha":693,"x_min":43,"x_max":651,"o":"m 347 -12 q 122 69 201 -12 q 43 293 43 150 l 43 969 l 267 969 l 267 293 q 288 226 267 250 q 347 201 308 201 q 406 226 386 201 q 426 293 426 250 l 426 969 l 651 969 l 651 293 q 572 69 651 150 q 347 -12 493 -12 m 249 1028 l 350 1254 l 574 1254 l 433 1028 l 249 1028 z "},"Û":{"ha":693,"x_min":43,"x_max":651,"o":"m 347 -12 q 122 69 201 -12 q 43 293 43 150 l 43 969 l 267 969 l 267 293 q 288 226 267 250 q 347 201 308 201 q 406 226 386 201 q 426 293 426 250 l 426 969 l 651 969 l 651 293 q 572 69 651 150 q 347 -12 493 -12 m 85 1028 l 246 1254 l 449 1254 l 607 1028 l 419 1028 l 349 1124 l 346 1124 l 274 1028 l 85 1028 z "},"Ü":{"ha":693,"x_min":43,"x_max":651,"o":"m 347 -12 q 122 69 201 -12 q 43 293 43 150 l 43 969 l 267 969 l 267 293 q 288 226 267 250 q 347 201 308 201 q 406 226 386 201 q 426 293 426 250 l 426 969 l 651 969 l 651 293 q 572 69 651 150 q 347 -12 493 -12 m 106 1118 q 134 1189 106 1161 q 208 1217 163 1217 q 283 1190 256 1217 q 311 1118 311 1163 q 282 1047 311 1075 q 208 1019 253 1019 q 134 1047 163 1019 q 106 1118 106 1075 m 383 1118 q 413 1189 383 1161 q 486 1217 442 1217 q 561 1190 533 1217 q 589 1118 589 1163 q 560 1047 589 1075 q 486 1019 532 1019 q 413 1047 442 1019 q 383 1118 383 1075 z "},"Ù":{"ha":693,"x_min":43,"x_max":651,"o":"m 347 -12 q 122 69 201 -12 q 43 293 43 150 l 43 969 l 267 969 l 267 293 q 288 226 267 250 q 347 201 308 201 q 406 226 386 201 q 426 293 426 250 l 426 969 l 651 969 l 651 293 q 572 69 651 150 q 347 -12 493 -12 m 119 1254 l 347 1254 l 449 1028 l 261 1028 l 119 1254 z "},"Ű":{"ha":693,"x_min":43,"x_max":676,"o":"m 347 -12 q 122 69 201 -12 q 43 293 43 150 l 43 969 l 267 969 l 267 293 q 288 226 267 250 q 347 201 308 201 q 406 226 386 201 q 426 293 426 250 l 426 969 l 651 969 l 651 293 q 572 69 651 150 q 347 -12 493 -12 m 138 1028 l 213 1254 l 401 1254 l 299 1028 l 138 1028 m 382 1028 l 481 1254 l 676 1254 l 549 1028 l 382 1028 z "},"Ū":{"ha":693,"x_min":43,"x_max":651,"o":"m 347 -12 q 122 69 201 -12 q 43 293 43 150 l 43 969 l 267 969 l 267 293 q 288 226 267 250 q 347 201 308 201 q 406 226 386 201 q 426 293 426 250 l 426 969 l 651 969 l 651 293 q 572 69 651 150 q 347 -12 493 -12 m 133 1042 l 133 1200 l 561 1200 l 561 1042 l 133 1042 z "},"Ų":{"ha":693,"x_min":43,"x_max":651,"o":"m 361 -243 q 238 -203 276 -243 q 199 -108 199 -162 q 246 0 199 -47 q 96 101 149 25 q 43 293 43 176 l 43 969 l 267 969 l 267 293 q 288 226 267 250 q 347 201 308 201 q 406 226 386 201 q 426 293 426 250 l 426 969 l 651 969 l 651 293 q 588 87 651 165 q 408 -8 525 8 q 365 -67 365 -29 q 406 -101 365 -101 q 427 -99 417 -101 q 449 -92 438 -96 l 449 -232 q 361 -243 400 -243 z "},"Ů":{"ha":693,"x_min":43,"x_max":651,"o":"m 347 -12 q 122 69 201 -12 q 43 293 43 150 l 43 969 l 267 969 l 267 293 q 288 226 267 250 q 347 201 308 201 q 406 226 386 201 q 426 293 426 250 l 426 969 l 651 969 l 651 293 q 572 69 651 150 q 347 -12 493 -12 m 178 1176 q 226 1293 178 1247 q 347 1339 274 1339 q 469 1293 421 1339 q 517 1176 517 1247 q 469 1060 517 1106 q 347 1015 421 1015 q 226 1060 274 1015 q 178 1176 178 1106 m 288 1176 q 304 1133 288 1150 q 347 1117 321 1117 q 390 1133 374 1117 q 407 1176 407 1150 q 390 1219 407 1203 q 347 1236 374 1236 q 304 1219 321 1236 q 288 1176 288 1203 z "},"V":{"ha":608,"x_min":-3,"x_max":611,"o":"m 146 0 l -3 969 l 224 969 l 303 244 l 307 244 l 392 969 l 611 969 l 464 0 l 146 0 z "},"W":{"ha":1097,"x_min":3,"x_max":1094,"o":"m 132 0 l 3 969 l 226 969 l 299 265 l 301 265 l 432 969 l 667 969 l 796 265 l 800 265 l 872 969 l 1094 969 l 960 0 l 658 0 l 549 631 l 544 631 l 432 0 l 132 0 z "},"Ẃ":{"ha":1097,"x_min":3,"x_max":1094,"o":"m 132 0 l 3 969 l 226 969 l 299 265 l 301 265 l 432 969 l 667 969 l 796 265 l 800 265 l 872 969 l 1094 969 l 960 0 l 658 0 l 549 631 l 544 631 l 432 0 l 132 0 m 451 1028 l 553 1254 l 776 1254 l 636 1028 l 451 1028 z "},"Ŵ":{"ha":1097,"x_min":3,"x_max":1094,"o":"m 132 0 l 3 969 l 226 969 l 299 265 l 301 265 l 432 969 l 667 969 l 796 265 l 800 265 l 872 969 l 1094 969 l 960 0 l 658 0 l 549 631 l 544 631 l 432 0 l 132 0 m 288 1028 l 449 1254 l 651 1254 l 810 1028 l 622 1028 l 551 1124 l 549 1124 l 476 1028 l 288 1028 z "},"Ẅ":{"ha":1097,"x_min":3,"x_max":1094,"o":"m 132 0 l 3 969 l 226 969 l 299 265 l 301 265 l 432 969 l 667 969 l 796 265 l 800 265 l 872 969 l 1094 969 l 960 0 l 658 0 l 549 631 l 544 631 l 432 0 l 132 0 m 308 1118 q 337 1189 308 1161 q 411 1217 365 1217 q 486 1190 458 1217 q 514 1118 514 1163 q 485 1047 514 1075 q 411 1019 456 1019 q 337 1047 365 1019 q 308 1118 308 1075 m 586 1118 q 615 1189 586 1161 q 689 1217 644 1217 q 764 1190 736 1217 q 792 1118 792 1163 q 763 1047 792 1075 q 689 1019 735 1019 q 615 1047 644 1019 q 586 1118 586 1075 z "},"Ẁ":{"ha":1097,"x_min":3,"x_max":1094,"o":"m 132 0 l 3 969 l 226 969 l 299 265 l 301 265 l 432 969 l 667 969 l 796 265 l 800 265 l 872 969 l 1094 969 l 960 0 l 658 0 l 549 631 l 544 631 l 432 0 l 132 0 m 322 1254 l 550 1254 l 651 1028 l 464 1028 l 322 1254 z "},"X":{"ha":636,"x_min":-4,"x_max":639,"o":"m -4 0 l 174 510 l -3 969 l 238 969 l 324 685 l 326 685 l 413 969 l 635 969 l 461 486 l 639 0 l 399 0 l 308 300 l 304 300 l 217 0 l -4 0 z "},"Y":{"ha":618,"x_min":-10,"x_max":626,"o":"m 192 0 l 192 299 l -10 969 l 222 969 l 310 547 l 313 547 l 406 969 l 626 969 l 425 293 l 425 0 l 192 0 z "},"Ý":{"ha":618,"x_min":-10,"x_max":626,"o":"m 192 0 l 192 299 l -10 969 l 222 969 l 310 547 l 313 547 l 406 969 l 626 969 l 425 293 l 425 0 l 192 0 m 213 1028 l 314 1254 l 538 1254 l 397 1028 l 213 1028 z "},"Ŷ":{"ha":618,"x_min":-10,"x_max":626,"o":"m 192 0 l 192 299 l -10 969 l 222 969 l 310 547 l 313 547 l 406 969 l 626 969 l 425 293 l 425 0 l 192 0 m 49 1028 l 210 1254 l 413 1254 l 571 1028 l 383 1028 l 313 1124 l 310 1124 l 238 1028 l 49 1028 z "},"Ÿ":{"ha":618,"x_min":-10,"x_max":626,"o":"m 192 0 l 192 299 l -10 969 l 222 969 l 310 547 l 313 547 l 406 969 l 626 969 l 425 293 l 425 0 l 192 0 m 69 1118 q 98 1189 69 1161 q 172 1217 126 1217 q 247 1190 219 1217 q 275 1118 275 1163 q 246 1047 275 1075 q 172 1019 217 1019 q 98 1047 126 1019 q 69 1118 69 1075 m 347 1118 q 376 1189 347 1161 q 450 1217 406 1217 q 525 1190 497 1217 q 553 1118 553 1163 q 524 1047 553 1075 q 450 1019 496 1019 q 376 1047 406 1019 q 347 1118 347 1075 z "},"Ỳ":{"ha":618,"x_min":-10,"x_max":626,"o":"m 192 0 l 192 299 l -10 969 l 222 969 l 310 547 l 313 547 l 406 969 l 626 969 l 425 293 l 425 0 l 192 0 m 83 1254 l 311 1254 l 413 1028 l 225 1028 l 83 1254 z "},"Z":{"ha":546,"x_min":13,"x_max":535,"o":"m 13 0 l 13 135 l 268 764 l 32 764 l 32 969 l 535 969 l 535 835 l 278 206 l 529 206 l 529 0 l 13 0 z "},"Ź":{"ha":546,"x_min":13,"x_max":535,"o":"m 13 0 l 13 135 l 268 764 l 32 764 l 32 969 l 535 969 l 535 835 l 278 206 l 529 206 l 529 0 l 13 0 m 183 1028 l 285 1254 l 508 1254 l 368 1028 l 183 1028 z "},"Ž":{"ha":546,"x_min":13,"x_max":542,"o":"m 13 0 l 13 135 l 268 764 l 32 764 l 32 969 l 535 969 l 535 835 l 278 206 l 529 206 l 529 0 l 13 0 m 19 1254 l 207 1254 l 278 1157 l 281 1157 l 353 1254 l 542 1254 l 381 1028 l 178 1028 l 19 1254 z "},"Ż":{"ha":546,"x_min":13,"x_max":535,"o":"m 13 0 l 13 135 l 268 764 l 32 764 l 32 969 l 535 969 l 535 835 l 278 206 l 529 206 l 529 0 l 13 0 m 158 1136 q 192 1219 158 1189 q 282 1249 226 1249 q 372 1219 339 1249 q 406 1136 406 1189 q 372 1054 406 1085 q 282 1024 339 1024 q 192 1054 226 1024 q 158 1136 158 1085 z "},"a":{"ha":644,"x_min":15,"x_max":608,"o":"m 250 -7 q 81 60 146 -7 q 15 240 15 126 q 81 421 15 356 q 251 486 147 486 q 392 447 331 486 l 394 447 l 394 469 q 358 557 394 526 q 256 588 322 588 q 164 574 208 588 q 85 540 119 560 l 85 724 q 299 764 189 764 q 528 689 447 764 q 608 471 608 614 l 608 0 l 410 0 l 410 44 l 407 44 q 250 -7 347 -7 m 225 244 q 251 175 225 201 q 315 149 276 149 q 378 175 354 149 q 403 244 403 201 q 378 313 403 288 q 315 339 354 339 q 251 313 276 339 q 225 244 225 288 z "},"á":{"ha":644,"x_min":15,"x_max":608,"o":"m 250 -7 q 81 60 146 -7 q 15 240 15 126 q 81 421 15 356 q 251 486 147 486 q 392 447 331 486 l 394 447 l 394 469 q 358 557 394 526 q 256 588 322 588 q 164 574 208 588 q 85 540 119 560 l 85 724 q 299 764 189 764 q 528 689 447 764 q 608 471 608 614 l 608 0 l 410 0 l 410 44 l 407 44 q 250 -7 347 -7 m 225 244 q 251 175 225 201 q 315 149 276 149 q 378 175 354 149 q 403 244 403 201 q 378 313 403 288 q 315 339 354 339 q 251 313 276 339 q 225 244 225 288 m 231 811 l 332 1038 l 556 1038 l 415 811 l 231 811 z "},"ă":{"ha":644,"x_min":15,"x_max":608,"o":"m 250 -7 q 81 60 146 -7 q 15 240 15 126 q 81 421 15 356 q 251 486 147 486 q 392 447 331 486 l 394 447 l 394 469 q 358 557 394 526 q 256 588 322 588 q 164 574 208 588 q 85 540 119 560 l 85 724 q 299 764 189 764 q 528 689 447 764 q 608 471 608 614 l 608 0 l 410 0 l 410 44 l 407 44 q 250 -7 347 -7 m 90 1038 l 243 1038 q 270 974 249 997 q 326 951 292 951 q 384 974 363 951 q 411 1038 406 997 l 565 1038 q 497 865 560 928 q 326 803 433 803 q 158 865 221 803 q 90 1038 96 928 m 225 244 q 251 175 225 201 q 315 149 276 149 q 378 175 354 149 q 403 244 403 201 q 378 313 403 288 q 315 339 354 339 q 251 313 276 339 q 225 244 225 288 z "},"â":{"ha":644,"x_min":15,"x_max":608,"o":"m 250 -7 q 81 60 146 -7 q 15 240 15 126 q 81 421 15 356 q 251 486 147 486 q 392 447 331 486 l 394 447 l 394 469 q 358 557 394 526 q 256 588 322 588 q 164 574 208 588 q 85 540 119 560 l 85 724 q 299 764 189 764 q 528 689 447 764 q 608 471 608 614 l 608 0 l 410 0 l 410 44 l 407 44 q 250 -7 347 -7 m 67 811 l 228 1038 l 431 1038 l 589 811 l 401 811 l 331 907 l 328 907 l 256 811 l 67 811 m 225 244 q 251 175 225 201 q 315 149 276 149 q 378 175 354 149 q 403 244 403 201 q 378 313 403 288 q 315 339 354 339 q 251 313 276 339 q 225 244 225 288 z "},"ä":{"ha":644,"x_min":15,"x_max":608,"o":"m 250 -7 q 81 60 146 -7 q 15 240 15 126 q 81 421 15 356 q 251 486 147 486 q 392 447 331 486 l 394 447 l 394 469 q 358 557 394 526 q 256 588 322 588 q 164 574 208 588 q 85 540 119 560 l 85 724 q 299 764 189 764 q 528 689 447 764 q 608 471 608 614 l 608 0 l 410 0 l 410 44 l 407 44 q 250 -7 347 -7 m 88 901 q 116 972 88 944 q 190 1000 144 1000 q 265 973 238 1000 q 293 901 293 946 q 264 831 293 858 q 190 803 235 803 q 116 831 144 803 q 88 901 88 858 m 225 244 q 251 175 225 201 q 315 149 276 149 q 378 175 354 149 q 403 244 403 201 q 378 313 403 288 q 315 339 354 339 q 251 313 276 339 q 225 244 225 288 m 365 901 q 394 972 365 944 q 468 1000 424 1000 q 543 973 515 1000 q 571 901 571 946 q 542 831 571 858 q 468 803 514 803 q 394 831 424 803 q 365 901 365 858 z "},"à":{"ha":644,"x_min":15,"x_max":608,"o":"m 250 -7 q 81 60 146 -7 q 15 240 15 126 q 81 421 15 356 q 251 486 147 486 q 392 447 331 486 l 394 447 l 394 469 q 358 557 394 526 q 256 588 322 588 q 164 574 208 588 q 85 540 119 560 l 85 724 q 299 764 189 764 q 528 689 447 764 q 608 471 608 614 l 608 0 l 410 0 l 410 44 l 407 44 q 250 -7 347 -7 m 101 1038 l 329 1038 l 431 811 l 243 811 l 101 1038 m 225 244 q 251 175 225 201 q 315 149 276 149 q 378 175 354 149 q 403 244 403 201 q 378 313 403 288 q 315 339 354 339 q 251 313 276 339 q 225 244 225 288 z "},"ā":{"ha":644,"x_min":15,"x_max":608,"o":"m 250 -7 q 81 60 146 -7 q 15 240 15 126 q 81 421 15 356 q 251 486 147 486 q 392 447 331 486 l 394 447 l 394 469 q 358 557 394 526 q 256 588 322 588 q 164 574 208 588 q 85 540 119 560 l 85 724 q 299 764 189 764 q 528 689 447 764 q 608 471 608 614 l 608 0 l 410 0 l 410 44 l 407 44 q 250 -7 347 -7 m 115 825 l 115 983 l 543 983 l 543 825 l 115 825 m 225 244 q 251 175 225 201 q 315 149 276 149 q 378 175 354 149 q 403 244 403 201 q 378 313 403 288 q 315 339 354 339 q 251 313 276 339 q 225 244 225 288 z "},"ą":{"ha":644,"x_min":15,"x_max":608,"o":"m 250 -7 q 81 60 146 -7 q 15 240 15 126 q 81 421 15 356 q 251 486 147 486 q 392 447 331 486 l 394 447 l 394 469 q 358 557 394 526 q 256 588 322 588 q 164 574 208 588 q 85 540 119 560 l 85 724 q 299 764 189 764 q 528 689 447 764 q 608 471 608 614 l 608 0 l 599 0 q 538 -21 561 0 q 515 -67 515 -42 q 556 -101 515 -101 q 577 -99 567 -101 q 599 -92 588 -96 l 599 -232 q 511 -243 550 -243 q 388 -203 426 -243 q 349 -108 349 -162 q 410 13 349 -37 l 410 44 l 407 44 q 250 -7 347 -7 m 225 244 q 251 175 225 201 q 315 149 276 149 q 378 175 354 149 q 403 244 403 201 q 378 313 403 288 q 315 339 354 339 q 251 313 276 339 q 225 244 225 288 z "},"å":{"ha":644,"x_min":15,"x_max":608,"o":"m 250 -7 q 81 60 146 -7 q 15 240 15 126 q 81 421 15 356 q 251 486 147 486 q 392 447 331 486 l 394 447 l 394 469 q 358 557 394 526 q 256 588 322 588 q 164 574 208 588 q 85 540 119 560 l 85 724 q 299 764 189 764 q 528 689 447 764 q 608 471 608 614 l 608 0 l 410 0 l 410 44 l 407 44 q 250 -7 347 -7 m 160 960 q 208 1076 160 1031 q 329 1122 256 1122 q 451 1076 403 1122 q 499 960 499 1031 q 451 844 499 889 q 329 799 403 799 q 208 844 256 799 q 160 960 160 889 m 225 244 q 251 175 225 201 q 315 149 276 149 q 378 175 354 149 q 403 244 403 201 q 378 313 403 288 q 315 339 354 339 q 251 313 276 339 q 225 244 225 288 m 269 960 q 286 917 269 933 q 329 900 303 900 q 372 917 356 900 q 389 960 389 933 q 372 1003 389 986 q 329 1019 356 1019 q 286 1003 303 1019 q 269 960 269 986 z "},"ã":{"ha":644,"x_min":15,"x_max":608,"o":"m 250 -7 q 81 60 146 -7 q 15 240 15 126 q 81 421 15 356 q 251 486 147 486 q 392 447 331 486 l 394 447 l 394 469 q 358 557 394 526 q 256 588 322 588 q 164 574 208 588 q 85 540 119 560 l 85 724 q 299 764 189 764 q 528 689 447 764 q 608 471 608 614 l 608 0 l 410 0 l 410 44 l 407 44 q 250 -7 347 -7 m 53 813 q 102 968 53 915 q 226 1021 151 1021 q 306 1006 272 1021 q 367 977 340 992 q 418 963 394 963 q 468 1018 461 963 l 606 1018 q 556 863 606 917 q 432 810 507 810 q 353 824 388 810 q 291 853 318 839 q 240 868 264 868 q 190 813 197 868 l 53 813 m 225 244 q 251 175 225 201 q 315 149 276 149 q 378 175 354 149 q 403 244 403 201 q 378 313 403 288 q 315 339 354 339 q 251 313 276 339 q 225 244 225 288 z "},"æ":{"ha":1139,"x_min":15,"x_max":1135,"o":"m 810 -8 q 503 106 601 -8 l 500 106 q 403 22 463 50 q 268 -7 343 -7 q 83 60 151 -7 q 15 242 15 128 q 81 421 15 356 q 251 486 147 486 q 392 447 331 486 l 394 447 l 394 469 q 358 557 394 526 q 254 588 322 588 q 163 574 207 588 q 85 538 119 560 l 85 724 q 299 764 186 764 q 535 669 460 764 l 538 669 q 776 761 625 761 q 977 708 893 761 q 1098 555 1061 656 q 1108 308 1135 454 l 613 308 q 690 210 633 242 q 822 178 746 178 q 944 197 885 178 q 1047 249 1003 217 l 1047 40 q 935 3 997 15 q 810 -8 872 -8 m 225 244 q 251 175 225 201 q 315 149 276 149 q 381 175 356 149 q 407 244 407 201 q 381 313 407 286 q 315 339 356 339 q 251 313 276 339 q 225 244 225 286 m 613 463 l 913 463 q 867 554 907 524 q 769 585 826 585 q 670 552 711 585 q 613 463 629 519 z "},"b":{"ha":792,"x_min":42,"x_max":772,"o":"m 442 -6 q 333 12 386 -6 q 240 67 281 29 l 238 67 l 238 0 l 42 0 l 42 999 l 256 999 l 256 706 l 258 706 q 440 761 335 761 q 611 713 536 761 q 729 579 686 665 q 772 376 772 493 q 730 175 772 261 q 613 42 688 89 q 442 -6 539 -6 m 244 378 q 290 246 244 293 q 399 199 335 199 q 508 246 464 199 q 551 378 551 293 q 508 510 551 463 q 399 558 464 558 q 290 511 335 558 q 244 378 244 464 z "},"c":{"ha":532,"x_min":18,"x_max":508,"o":"m 394 -8 q 199 39 285 -8 q 66 172 114 86 q 18 375 18 258 q 66 579 18 493 q 199 713 114 665 q 394 760 285 760 q 449 757 421 760 q 508 744 478 754 l 508 531 q 411 554 458 554 q 290 506 339 554 q 242 375 242 458 q 290 245 242 293 q 411 197 339 197 q 508 221 458 197 l 508 7 q 449 -6 478 -3 q 394 -8 421 -8 z "},"ć":{"ha":532,"x_min":18,"x_max":547,"o":"m 394 -8 q 199 39 285 -8 q 66 172 114 86 q 18 375 18 258 q 66 579 18 493 q 199 713 114 665 q 394 760 285 760 q 449 757 421 760 q 508 744 478 754 l 508 531 q 411 554 458 554 q 290 506 339 554 q 242 375 242 458 q 290 245 242 293 q 411 197 339 197 q 508 221 458 197 l 508 7 q 449 -6 478 -3 q 394 -8 421 -8 m 222 811 l 324 1038 l 547 1038 l 407 811 l 222 811 z "},"č":{"ha":532,"x_min":18,"x_max":581,"o":"m 394 -8 q 199 39 285 -8 q 66 172 114 86 q 18 375 18 258 q 66 579 18 493 q 199 713 114 665 q 394 760 285 760 q 449 757 421 760 q 508 744 478 754 l 508 531 q 411 554 458 554 q 290 506 339 554 q 242 375 242 458 q 290 245 242 293 q 411 197 339 197 q 508 221 458 197 l 508 7 q 449 -6 478 -3 q 394 -8 421 -8 m 58 1038 l 246 1038 l 317 940 l 319 940 l 392 1038 l 581 1038 l 419 811 l 217 811 l 58 1038 z "},"ç":{"ha":532,"x_min":18,"x_max":508,"o":"m 394 -8 l 392 -8 l 340 -215 l 144 -164 l 231 24 q 76 157 133 65 q 18 375 18 249 q 66 579 18 493 q 199 713 114 665 q 394 760 285 760 q 449 757 421 760 q 508 744 478 754 l 508 531 q 411 554 458 554 q 290 506 339 554 q 242 375 242 458 q 290 245 242 293 q 411 197 339 197 q 508 221 458 197 l 508 7 q 449 -6 478 -3 q 394 -8 421 -8 z "},"d":{"ha":792,"x_min":19,"x_max":751,"o":"m 351 -6 q 179 42 254 -6 q 62 175 104 89 q 19 376 19 261 q 63 579 19 493 q 181 713 106 665 q 351 761 257 761 q 535 706 458 761 l 538 706 l 538 999 l 751 999 l 751 0 l 554 0 l 554 67 l 551 67 q 460 12 513 29 q 351 -6 407 -6 m 242 378 q 285 246 242 293 q 394 199 328 199 q 503 246 460 199 q 547 378 547 293 q 503 511 547 464 q 394 558 460 558 q 285 510 328 558 q 242 378 242 463 z "},"ð":{"ha":797,"x_min":18,"x_max":779,"o":"m 399 -10 q 199 38 285 -10 q 66 170 114 86 q 18 360 18 254 q 63 538 18 461 q 187 660 107 615 q 369 704 267 704 q 451 696 410 704 l 453 697 q 419 742 438 719 q 381 788 401 765 l 115 731 l 86 847 l 282 889 q 223 944 254 917 q 157 999 192 971 l 421 999 q 456 967 439 983 q 489 933 472 950 l 681 975 l 710 858 l 582 831 q 689 675 642 756 q 756 523 733 597 q 779 371 779 449 q 731 172 779 258 q 598 38 683 86 q 399 -10 513 -10 m 240 369 q 285 248 240 296 q 399 200 329 200 q 513 249 468 200 q 557 369 557 297 q 513 490 557 443 q 399 536 468 536 q 285 490 329 536 q 240 369 240 443 z "},"ď":{"ha":792,"x_min":19,"x_max":983,"o":"m 351 -6 q 179 42 254 -6 q 62 175 104 89 q 19 376 19 261 q 63 579 19 493 q 181 713 106 665 q 351 761 257 761 q 535 706 458 761 l 538 706 l 538 999 l 751 999 l 751 0 l 554 0 l 554 67 l 551 67 q 460 12 513 29 q 351 -6 407 -6 m 242 378 q 285 246 242 293 q 394 199 328 199 q 503 246 460 199 q 547 378 547 293 q 503 511 547 464 q 394 558 460 558 q 285 510 328 558 q 242 378 242 463 m 800 808 l 800 1086 l 983 1086 l 938 808 l 800 808 z "},"đ":{"ha":826,"x_min":19,"x_max":818,"o":"m 328 799 l 328 942 l 546 942 l 546 1010 l 751 1010 l 751 942 l 818 942 l 818 799 l 751 799 l 751 0 l 554 0 l 554 67 l 551 67 q 460 12 513 29 q 351 -6 407 -6 q 179 42 254 -6 q 62 175 104 89 q 19 376 19 261 q 63 579 19 493 q 181 713 106 665 q 353 761 257 761 q 456 745 407 761 q 543 701 506 729 l 546 701 l 546 799 l 328 799 m 242 378 q 285 246 242 293 q 394 199 328 199 q 503 246 460 199 q 547 378 547 293 q 503 511 547 464 q 394 558 460 558 q 285 510 328 558 q 242 378 242 463 z "},"e":{"ha":758,"x_min":18,"x_max":756,"o":"m 433 -8 q 210 40 303 -8 q 67 174 117 88 q 18 375 18 260 q 66 580 18 493 q 199 714 114 667 q 397 761 285 761 q 599 708 515 761 q 719 555 682 656 q 729 308 756 454 l 243 308 q 317 215 263 244 q 446 185 371 185 q 563 201 503 185 q 671 251 622 217 l 671 39 q 554 3 617 14 q 433 -8 492 -8 m 243 468 l 532 468 q 485 552 525 524 q 392 581 446 581 q 298 551 336 581 q 243 468 260 521 z "},"é":{"ha":758,"x_min":18,"x_max":756,"o":"m 433 -8 q 210 40 303 -8 q 67 174 117 88 q 18 375 18 260 q 66 580 18 493 q 199 714 114 667 q 397 761 285 761 q 599 708 515 761 q 719 555 682 656 q 729 308 756 454 l 243 308 q 317 215 263 244 q 446 185 371 185 q 563 201 503 185 q 671 251 622 217 l 671 39 q 554 3 617 14 q 433 -8 492 -8 m 243 468 l 532 468 q 485 552 525 524 q 392 581 446 581 q 298 551 336 581 q 243 468 260 521 m 299 811 l 400 1038 l 624 1038 l 483 811 l 299 811 z "},"ě":{"ha":758,"x_min":18,"x_max":756,"o":"m 433 -8 q 210 40 303 -8 q 67 174 117 88 q 18 375 18 260 q 66 580 18 493 q 199 714 114 667 q 397 761 285 761 q 599 708 515 761 q 719 555 682 656 q 729 308 756 454 l 243 308 q 317 215 263 244 q 446 185 371 185 q 563 201 503 185 q 671 251 622 217 l 671 39 q 554 3 617 14 q 433 -8 492 -8 m 135 1038 l 322 1038 l 393 940 l 396 940 l 468 1038 l 657 1038 l 496 811 l 293 811 l 135 1038 m 243 468 l 532 468 q 485 552 525 524 q 392 581 446 581 q 298 551 336 581 q 243 468 260 521 z "},"ê":{"ha":758,"x_min":18,"x_max":756,"o":"m 433 -8 q 210 40 303 -8 q 67 174 117 88 q 18 375 18 260 q 66 580 18 493 q 199 714 114 667 q 397 761 285 761 q 599 708 515 761 q 719 555 682 656 q 729 308 756 454 l 243 308 q 317 215 263 244 q 446 185 371 185 q 563 201 503 185 q 671 251 622 217 l 671 39 q 554 3 617 14 q 433 -8 492 -8 m 135 811 l 296 1038 l 499 1038 l 657 811 l 469 811 l 399 907 l 396 907 l 324 811 l 135 811 m 243 468 l 532 468 q 485 552 525 524 q 392 581 446 581 q 298 551 336 581 q 243 468 260 521 z "},"ë":{"ha":758,"x_min":18,"x_max":756,"o":"m 433 -8 q 210 40 303 -8 q 67 174 117 88 q 18 375 18 260 q 66 580 18 493 q 199 714 114 667 q 397 761 285 761 q 599 708 515 761 q 719 555 682 656 q 729 308 756 454 l 243 308 q 317 215 263 244 q 446 185 371 185 q 563 201 503 185 q 671 251 622 217 l 671 39 q 554 3 617 14 q 433 -8 492 -8 m 156 901 q 184 972 156 944 q 258 1000 213 1000 q 333 973 306 1000 q 361 901 361 946 q 332 831 361 858 q 258 803 303 803 q 184 831 213 803 q 156 901 156 858 m 243 468 l 532 468 q 485 552 525 524 q 392 581 446 581 q 298 551 336 581 q 243 468 260 521 m 433 901 q 463 972 433 944 q 536 1000 492 1000 q 611 973 583 1000 q 639 901 639 946 q 610 831 639 858 q 536 803 582 803 q 463 831 492 803 q 433 901 433 858 z "},"ė":{"ha":758,"x_min":18,"x_max":756,"o":"m 433 -8 q 210 40 303 -8 q 67 174 117 88 q 18 375 18 260 q 66 580 18 493 q 199 714 114 667 q 397 761 285 761 q 599 708 515 761 q 719 555 682 656 q 729 308 756 454 l 243 308 q 317 215 263 244 q 446 185 371 185 q 563 201 503 185 q 671 251 622 217 l 671 39 q 554 3 617 14 q 433 -8 492 -8 m 243 468 l 532 468 q 485 552 525 524 q 392 581 446 581 q 298 551 336 581 q 243 468 260 521 m 274 919 q 308 1002 274 972 q 397 1032 342 1032 q 488 1002 454 1032 q 521 919 521 972 q 488 838 521 868 q 397 807 454 807 q 308 838 342 807 q 274 919 274 868 z "},"è":{"ha":758,"x_min":18,"x_max":756,"o":"m 433 -8 q 210 40 303 -8 q 67 174 117 88 q 18 375 18 260 q 66 580 18 493 q 199 714 114 667 q 397 761 285 761 q 599 708 515 761 q 719 555 682 656 q 729 308 756 454 l 243 308 q 317 215 263 244 q 446 185 371 185 q 563 201 503 185 q 671 251 622 217 l 671 39 q 554 3 617 14 q 433 -8 492 -8 m 169 1038 l 397 1038 l 499 811 l 311 811 l 169 1038 m 243 468 l 532 468 q 485 552 525 524 q 392 581 446 581 q 298 551 336 581 q 243 468 260 521 z "},"ē":{"ha":758,"x_min":18,"x_max":756,"o":"m 433 -8 q 210 40 303 -8 q 67 174 117 88 q 18 375 18 260 q 66 580 18 493 q 199 714 114 667 q 397 761 285 761 q 599 708 515 761 q 719 555 682 656 q 729 308 756 454 l 243 308 q 317 215 263 244 q 446 185 371 185 q 563 201 503 185 q 671 251 622 217 l 671 39 q 554 3 617 14 q 433 -8 492 -8 m 183 825 l 183 983 l 611 983 l 611 825 l 183 825 m 243 468 l 532 468 q 485 552 525 524 q 392 581 446 581 q 298 551 336 581 q 243 468 260 521 z "},"ę":{"ha":758,"x_min":18,"x_max":756,"o":"m 446 -243 q 322 -203 361 -243 q 283 -108 283 -162 q 331 0 283 -44 q 100 126 182 26 q 18 375 18 226 q 66 580 18 493 q 199 714 114 667 q 397 761 285 761 q 599 708 515 761 q 719 555 682 656 q 729 308 756 454 l 243 308 q 317 215 263 244 q 446 185 371 185 q 563 201 503 185 q 671 251 622 217 l 671 39 q 589 10 632 21 q 501 -4 546 0 q 464 -30 478 -12 q 450 -67 450 -47 q 490 -101 450 -101 q 512 -99 501 -101 q 533 -92 522 -96 l 533 -232 q 446 -243 485 -243 m 243 468 l 532 468 q 485 552 525 524 q 392 581 446 581 q 298 551 336 581 q 243 468 260 521 z "},"f":{"ha":438,"x_min":13,"x_max":428,"o":"m 82 785 q 142 960 82 903 q 307 1017 203 1017 q 369 1012 339 1017 q 428 999 400 1007 l 428 808 q 353 829 386 829 q 313 815 329 829 q 296 769 296 801 l 296 753 l 426 753 l 426 565 l 296 565 l 296 0 l 82 0 l 82 565 l 13 565 l 13 753 l 82 753 l 82 785 z "},"g":{"ha":774,"x_min":19,"x_max":733,"o":"m 347 -194 q 224 -184 283 -194 q 110 -156 164 -174 l 110 53 q 214 8 157 26 q 336 -11 271 -11 q 473 23 425 -11 q 521 121 521 57 l 521 133 l 518 133 q 433 90 479 103 q 338 78 386 78 q 174 117 246 78 q 60 232 101 157 q 19 413 19 307 q 60 597 19 519 q 174 717 101 675 q 342 760 247 760 q 536 692 461 760 l 539 692 l 539 753 l 733 753 l 733 139 q 681 -54 733 19 q 540 -161 628 -128 q 347 -194 453 -194 m 242 410 q 281 298 242 342 q 386 254 319 254 q 492 295 451 254 q 532 410 532 336 q 492 525 532 483 q 386 567 451 567 q 280 523 318 567 q 242 410 242 479 z "},"ģ":{"ha":774,"x_min":19,"x_max":733,"o":"m 347 -194 q 224 -184 283 -194 q 110 -156 164 -174 l 110 53 q 214 8 157 26 q 336 -11 271 -11 q 473 23 425 -11 q 521 121 521 57 l 521 133 l 518 133 q 433 90 479 103 q 338 78 386 78 q 174 117 246 78 q 60 232 101 157 q 19 413 19 307 q 60 597 19 519 q 174 717 101 675 q 342 760 247 760 q 536 692 461 760 l 539 692 l 539 753 l 733 753 l 733 139 q 681 -54 733 19 q 540 -161 628 -128 q 347 -194 453 -194 m 242 410 q 281 298 242 342 q 386 254 319 254 q 492 295 451 254 q 532 410 532 336 q 492 525 532 483 q 386 567 451 567 q 280 523 318 567 q 242 410 242 479 m 296 811 l 353 1038 l 519 1038 l 492 811 l 296 811 z "},"h":{"ha":682,"x_min":42,"x_max":643,"o":"m 42 0 l 42 999 l 256 999 l 256 701 l 258 701 q 415 761 318 761 q 581 695 518 761 q 643 515 643 629 l 643 0 l 431 0 l 431 463 q 407 534 431 508 q 343 560 383 560 q 279 534 303 560 q 256 463 256 508 l 256 0 l 42 0 z "},"i":{"ha":296,"x_min":25,"x_max":272,"o":"m 42 0 l 42 753 l 256 753 l 256 0 l 42 0 m 25 919 q 59 1002 25 972 q 149 1032 93 1032 q 239 1002 206 1032 q 272 919 272 972 q 239 838 272 868 q 149 807 206 807 q 59 838 93 807 q 25 919 25 868 z "},"ı":{"ha":296,"x_min":42,"x_max":256,"o":"m 42 0 l 42 753 l 256 753 l 256 0 l 42 0 z "},"í":{"ha":296,"x_min":42,"x_max":375,"o":"m 42 0 l 42 753 l 256 753 l 256 0 l 42 0 m 50 811 l 151 1038 l 375 1038 l 235 811 l 50 811 z "},"î":{"ha":296,"x_min":-114,"x_max":408,"o":"m 42 0 l 42 753 l 256 753 l 256 0 l 42 0 m -114 811 l 47 1038 l 250 1038 l 408 811 l 221 811 l 150 907 l 147 907 l 75 811 l -114 811 z "},"ï":{"ha":296,"x_min":-93,"x_max":390,"o":"m 42 0 l 42 753 l 256 753 l 256 0 l 42 0 m -93 901 q -65 972 -93 944 q 10 1000 -36 1000 q 85 973 57 1000 q 113 901 113 946 q 83 831 113 858 q 10 803 54 803 q -65 831 -36 803 q -93 901 -93 858 m 185 901 q 214 972 185 944 q 288 1000 243 1000 q 363 973 335 1000 q 390 901 390 946 q 362 831 390 858 q 288 803 333 803 q 214 831 243 803 q 185 901 185 858 z "},"ì":{"ha":296,"x_min":-79,"x_max":256,"o":"m 42 0 l 42 753 l 256 753 l 256 0 l 42 0 m -79 1038 l 149 1038 l 250 811 l 63 811 l -79 1038 z "},"ĳ":{"ha":615,"x_min":25,"x_max":590,"o":"m 42 0 l 42 753 l 256 753 l 256 0 l 42 0 m 25 919 q 59 1002 25 972 q 149 1032 93 1032 q 239 1002 206 1032 q 272 919 272 972 q 239 838 272 868 q 149 807 206 807 q 59 838 93 807 q 25 919 25 868 m 265 -181 l 265 4 q 317 -7 296 -7 q 347 3 335 -7 q 360 40 360 14 l 360 753 l 574 753 l 574 40 q 515 -138 574 -82 q 364 -194 457 -194 q 313 -190 338 -194 q 265 -181 289 -186 m 343 919 q 377 1002 343 972 q 467 1032 411 1032 q 557 1002 524 1032 q 590 919 590 972 q 557 838 590 868 q 467 807 524 807 q 377 838 411 807 q 343 919 343 868 z "},"ī":{"ha":296,"x_min":-65,"x_max":363,"o":"m 42 0 l 42 753 l 256 753 l 256 0 l 42 0 m -65 825 l -65 983 l 363 983 l 363 825 l -65 825 z "},"į":{"ha":296,"x_min":-12,"x_max":272,"o":"m 149 807 q 59 838 93 807 q 25 919 25 868 q 59 1002 25 972 q 149 1032 93 1032 q 239 1002 206 1032 q 272 919 272 972 q 239 838 272 868 q 149 807 206 807 m -12 -108 q 1 -45 -12 -74 q 42 7 15 -17 l 42 753 l 256 753 l 256 0 l 238 0 q 177 -21 200 0 q 154 -67 154 -42 q 194 -101 154 -101 q 216 -99 206 -101 q 238 -92 226 -96 l 238 -232 q 150 -243 189 -243 q 26 -203 65 -243 q -12 -108 -12 -162 z "},"j":{"ha":326,"x_min":-24,"x_max":301,"o":"m 75 -194 q 24 -190 49 -194 q -24 -181 0 -186 l -24 4 q 28 -7 7 -7 q 58 3 46 -7 q 71 40 71 14 l 71 753 l 285 753 l 285 40 q 226 -138 285 -82 q 75 -194 168 -194 m 54 919 q 88 1002 54 972 q 178 1032 122 1032 q 268 1002 235 1032 q 301 919 301 972 q 268 838 301 868 q 178 807 235 807 q 88 838 122 807 q 54 919 54 868 z "},"ȷ":{"ha":326,"x_min":-24,"x_max":285,"o":"m 75 -194 q 24 -190 49 -194 q -24 -181 0 -186 l -24 4 q 28 -7 7 -7 q 58 3 46 -7 q 71 40 71 14 l 71 753 l 285 753 l 285 40 q 226 -138 285 -82 q 75 -194 168 -194 z "},"k":{"ha":649,"x_min":42,"x_max":651,"o":"m 42 0 l 42 999 l 256 999 l 256 481 l 258 481 l 415 753 l 651 753 l 450 449 q 570 374 526 432 q 614 218 614 317 l 614 0 l 401 0 l 401 188 q 315 289 401 289 l 256 289 l 256 0 l 42 0 z "},"ķ":{"ha":649,"x_min":42,"x_max":651,"o":"m 42 0 l 42 999 l 256 999 l 256 481 l 258 481 l 415 753 l 651 753 l 450 449 q 570 374 526 432 q 614 218 614 317 l 614 0 l 401 0 l 401 188 q 315 289 401 289 l 256 289 l 256 0 l 42 0 m 203 -243 l 231 -51 l 425 -51 l 368 -243 l 203 -243 z "},"l":{"ha":297,"x_min":42,"x_max":256,"o":"m 42 0 l 42 999 l 256 999 l 256 0 l 42 0 z "},"ĺ":{"ha":297,"x_min":42,"x_max":375,"o":"m 42 0 l 42 999 l 256 999 l 256 0 l 42 0 m 50 1057 l 151 1283 l 375 1283 l 235 1057 l 50 1057 z "},"ľ":{"ha":297,"x_min":42,"x_max":489,"o":"m 42 0 l 42 999 l 256 999 l 256 0 l 42 0 m 306 808 l 306 1086 l 489 1086 l 443 808 l 306 808 z "},"ļ":{"ha":297,"x_min":24,"x_max":256,"o":"m 42 0 l 42 999 l 256 999 l 256 0 l 42 0 m 24 -243 l 51 -51 l 246 -51 l 189 -243 l 24 -243 z "},"ł":{"ha":428,"x_min":11,"x_max":415,"o":"m 107 0 l 107 425 l 11 381 l 11 578 l 107 622 l 107 999 l 321 999 l 321 721 l 415 764 l 415 567 l 321 524 l 321 0 l 107 0 z "},"m":{"ha":1056,"x_min":42,"x_max":1015,"o":"m 42 0 l 42 753 l 231 753 l 231 692 l 233 692 q 310 744 268 728 q 403 761 351 761 q 588 676 526 761 l 590 676 q 779 761 661 761 q 951 696 888 761 q 1015 515 1015 631 l 1015 0 l 803 0 l 803 463 q 781 534 803 508 q 719 560 760 560 q 658 534 681 560 q 636 463 636 508 l 636 0 l 422 0 l 422 463 q 401 534 422 508 q 339 560 379 560 q 278 534 300 560 q 256 463 256 508 l 256 0 l 42 0 z "},"n":{"ha":683,"x_min":42,"x_max":644,"o":"m 42 0 l 42 753 l 231 753 l 231 692 l 233 692 q 407 761 300 761 q 579 695 514 761 q 644 515 644 629 l 644 0 l 431 0 l 431 463 q 407 534 431 508 q 343 560 383 560 q 280 534 304 560 q 256 463 256 508 l 256 0 l 42 0 z "},"ń":{"ha":683,"x_min":42,"x_max":644,"o":"m 42 0 l 42 753 l 231 753 l 231 692 l 233 692 q 407 761 300 761 q 579 695 514 761 q 644 515 644 629 l 644 0 l 431 0 l 431 463 q 407 534 431 508 q 343 560 383 560 q 280 534 304 560 q 256 463 256 508 l 256 0 l 42 0 m 242 811 l 343 1038 l 567 1038 l 426 811 l 242 811 z "},"ň":{"ha":683,"x_min":42,"x_max":644,"o":"m 42 0 l 42 753 l 231 753 l 231 692 l 233 692 q 407 761 300 761 q 579 695 514 761 q 644 515 644 629 l 644 0 l 431 0 l 431 463 q 407 534 431 508 q 343 560 383 560 q 280 534 304 560 q 256 463 256 508 l 256 0 l 42 0 m 78 1038 l 265 1038 l 336 940 l 339 940 l 411 1038 l 600 1038 l 439 811 l 236 811 l 78 1038 z "},"ņ":{"ha":683,"x_min":42,"x_max":644,"o":"m 42 0 l 42 753 l 231 753 l 231 692 l 233 692 q 407 761 300 761 q 579 695 514 761 q 644 515 644 629 l 644 0 l 431 0 l 431 463 q 407 534 431 508 q 343 560 383 560 q 280 534 304 560 q 256 463 256 508 l 256 0 l 42 0 m 217 -243 l 244 -51 l 439 -51 l 382 -243 l 217 -243 z "},"ñ":{"ha":683,"x_min":42,"x_max":644,"o":"m 42 0 l 42 753 l 231 753 l 231 692 l 233 692 q 407 761 300 761 q 579 695 514 761 q 644 515 644 629 l 644 0 l 431 0 l 431 463 q 407 534 431 508 q 343 560 383 560 q 280 534 304 560 q 256 463 256 508 l 256 0 l 42 0 m 64 813 q 113 968 64 915 q 238 1021 163 1021 q 317 1006 283 1021 q 378 977 351 992 q 429 963 406 963 q 479 1018 472 963 l 617 1018 q 567 863 617 917 q 443 810 518 810 q 364 824 399 810 q 302 853 329 839 q 251 868 275 868 q 201 813 208 868 l 64 813 z "},"ŋ":{"ha":688,"x_min":42,"x_max":649,"o":"m 444 -194 q 350 -181 397 -194 l 350 4 q 374 -3 363 0 q 396 -6 386 -6 q 423 3 411 -6 q 435 39 435 13 l 435 461 q 411 533 435 507 q 346 560 388 560 q 281 533 306 560 q 256 461 256 507 l 256 0 l 42 0 l 42 753 l 231 753 l 231 692 l 233 692 q 408 761 300 761 q 583 694 518 761 q 649 513 649 628 l 649 40 q 592 -138 649 -82 q 444 -194 535 -194 z "},"o":{"ha":801,"x_min":18,"x_max":783,"o":"m 401 -10 q 200 38 286 -10 q 66 174 114 86 q 18 376 18 261 q 66 578 18 492 q 200 714 114 665 q 401 763 286 763 q 602 715 517 763 q 735 580 688 667 q 783 376 783 493 q 735 174 783 261 q 602 38 688 86 q 401 -10 517 -10 m 240 376 q 285 249 240 299 q 401 200 331 200 q 517 249 472 200 q 561 376 561 299 q 517 504 561 456 q 401 553 472 553 q 285 504 329 553 q 240 376 240 456 z "},"ó":{"ha":801,"x_min":18,"x_max":783,"o":"m 401 -10 q 200 38 286 -10 q 66 174 114 86 q 18 376 18 261 q 66 578 18 492 q 200 714 114 665 q 401 763 286 763 q 602 715 517 763 q 735 580 688 667 q 783 376 783 493 q 735 174 783 261 q 602 38 688 86 q 401 -10 517 -10 m 240 376 q 285 249 240 299 q 401 200 331 200 q 517 249 472 200 q 561 376 561 299 q 517 504 561 456 q 401 553 472 553 q 285 504 329 553 q 240 376 240 456 m 303 811 l 404 1038 l 628 1038 l 488 811 l 303 811 z "},"ô":{"ha":801,"x_min":18,"x_max":783,"o":"m 401 -10 q 200 38 286 -10 q 66 174 114 86 q 18 376 18 261 q 66 578 18 492 q 200 714 114 665 q 401 763 286 763 q 602 715 517 763 q 735 580 688 667 q 783 376 783 493 q 735 174 783 261 q 602 38 688 86 q 401 -10 517 -10 m 139 811 l 300 1038 l 503 1038 l 661 811 l 474 811 l 403 907 l 400 907 l 328 811 l 139 811 m 240 376 q 285 249 240 299 q 401 200 331 200 q 517 249 472 200 q 561 376 561 299 q 517 504 561 456 q 401 553 472 553 q 285 504 329 553 q 240 376 240 456 z "},"ö":{"ha":801,"x_min":18,"x_max":783,"o":"m 401 -10 q 200 38 286 -10 q 66 174 114 86 q 18 376 18 261 q 66 578 18 492 q 200 714 114 665 q 401 763 286 763 q 602 715 517 763 q 735 580 688 667 q 783 376 783 493 q 735 174 783 261 q 602 38 688 86 q 401 -10 517 -10 m 160 901 q 188 972 160 944 q 263 1000 217 1000 q 338 973 310 1000 q 365 901 365 946 q 336 831 365 858 q 263 803 307 803 q 188 831 217 803 q 160 901 160 858 m 240 376 q 285 249 240 299 q 401 200 331 200 q 517 249 472 200 q 561 376 561 299 q 517 504 561 456 q 401 553 472 553 q 285 504 329 553 q 240 376 240 456 m 438 901 q 467 972 438 944 q 540 1000 496 1000 q 615 973 588 1000 q 643 901 643 946 q 615 831 643 858 q 540 803 586 803 q 467 831 496 803 q 438 901 438 858 z "},"ò":{"ha":801,"x_min":18,"x_max":783,"o":"m 401 -10 q 200 38 286 -10 q 66 174 114 86 q 18 376 18 261 q 66 578 18 492 q 200 714 114 665 q 401 763 286 763 q 602 715 517 763 q 735 580 688 667 q 783 376 783 493 q 735 174 783 261 q 602 38 688 86 q 401 -10 517 -10 m 174 1038 l 401 1038 l 503 811 l 315 811 l 174 1038 m 240 376 q 285 249 240 299 q 401 200 331 200 q 517 249 472 200 q 561 376 561 299 q 517 504 561 456 q 401 553 472 553 q 285 504 329 553 q 240 376 240 456 z "},"ő":{"ha":801,"x_min":18,"x_max":783,"o":"m 401 -10 q 200 38 286 -10 q 66 174 114 86 q 18 376 18 261 q 66 578 18 492 q 200 714 114 665 q 401 763 286 763 q 602 715 517 763 q 735 580 688 667 q 783 376 783 493 q 735 174 783 261 q 602 38 688 86 q 401 -10 517 -10 m 192 811 l 267 1038 l 456 1038 l 353 811 l 192 811 m 240 376 q 285 249 240 299 q 401 200 331 200 q 517 249 472 200 q 561 376 561 299 q 517 504 561 456 q 401 553 472 553 q 285 504 329 553 q 240 376 240 456 m 436 811 l 535 1038 l 731 1038 l 603 811 l 436 811 z "},"ō":{"ha":801,"x_min":18,"x_max":783,"o":"m 401 -10 q 200 38 286 -10 q 66 174 114 86 q 18 376 18 261 q 66 578 18 492 q 200 714 114 665 q 401 763 286 763 q 602 715 517 763 q 735 580 688 667 q 783 376 783 493 q 735 174 783 261 q 602 38 688 86 q 401 -10 517 -10 m 188 825 l 188 983 l 615 983 l 615 825 l 188 825 m 240 376 q 285 249 240 299 q 401 200 331 200 q 517 249 472 200 q 561 376 561 299 q 517 504 561 456 q 401 553 472 553 q 285 504 329 553 q 240 376 240 456 z "},"ø":{"ha":806,"x_min":19,"x_max":785,"o":"m 131 -57 l 22 32 l 100 125 q 40 237 61 174 q 19 376 19 300 q 67 578 19 492 q 202 714 115 665 q 403 763 289 763 q 597 718 513 763 l 675 811 l 782 721 l 704 628 q 764 517 743 581 q 785 376 785 453 q 737 174 785 261 q 603 38 689 86 q 403 -10 518 -10 q 208 35 290 -10 l 131 -57 m 225 376 q 240 292 225 331 l 465 561 q 435 568 451 565 q 403 571 419 571 q 274 517 324 571 q 225 376 225 463 m 339 193 q 403 182 369 182 q 532 236 482 182 q 582 376 582 290 q 565 463 582 425 l 339 193 z "},"õ":{"ha":801,"x_min":18,"x_max":783,"o":"m 401 -10 q 200 38 286 -10 q 66 174 114 86 q 18 376 18 261 q 66 578 18 492 q 200 714 114 665 q 401 763 286 763 q 602 715 517 763 q 735 580 688 667 q 783 376 783 493 q 735 174 783 261 q 602 38 688 86 q 401 -10 517 -10 m 125 813 q 174 968 125 915 q 299 1021 224 1021 q 378 1006 344 1021 q 440 977 413 992 q 490 963 467 963 q 540 1018 533 963 l 678 1018 q 628 863 678 917 q 504 810 579 810 q 425 824 460 810 q 363 853 390 839 q 313 868 336 868 q 263 813 269 868 l 125 813 m 240 376 q 285 249 240 299 q 401 200 331 200 q 517 249 472 200 q 561 376 561 299 q 517 504 561 456 q 401 553 472 553 q 285 504 329 553 q 240 376 240 456 z "},"œ":{"ha":1300,"x_min":18,"x_max":1297,"o":"m 401 -10 q 200 38 286 -10 q 66 174 114 86 q 18 376 18 261 q 66 578 18 492 q 200 714 114 665 q 401 763 286 763 q 669 654 569 763 l 672 654 q 936 761 768 761 q 1139 708 1054 761 q 1260 555 1224 656 q 1271 308 1297 454 l 778 308 q 853 210 797 243 q 985 178 908 178 q 1101 195 1042 178 q 1210 249 1161 213 l 1210 40 q 1096 3 1158 14 q 972 -8 1033 -8 q 675 101 776 -8 l 672 101 q 401 -10 572 -10 m 240 376 q 285 249 240 299 q 401 200 331 200 q 517 249 472 200 q 561 376 561 299 q 517 504 561 456 q 401 553 472 553 q 285 504 329 553 q 240 376 240 456 m 776 463 l 1075 463 q 1029 554 1069 524 q 933 585 989 585 q 834 552 875 585 q 776 463 793 519 z "},"p":{"ha":792,"x_min":42,"x_max":772,"o":"m 42 -187 l 42 753 l 238 753 l 238 686 l 240 686 q 333 742 281 725 q 442 760 386 760 q 613 712 539 760 q 730 578 688 664 q 772 376 772 492 q 729 174 772 261 q 611 40 686 88 q 440 -7 536 -7 q 258 49 335 -7 l 256 49 l 256 -187 l 42 -187 m 244 376 q 290 244 244 292 q 399 197 335 197 q 508 245 464 197 q 551 378 551 293 q 508 510 551 463 q 399 557 464 557 q 290 510 335 557 q 244 376 244 463 z "},"þ":{"ha":792,"x_min":42,"x_max":772,"o":"m 42 -187 l 42 999 l 256 999 l 256 706 l 258 706 q 440 761 335 761 q 611 713 536 761 q 729 579 686 665 q 772 376 772 493 q 729 174 772 261 q 611 40 686 88 q 440 -7 536 -7 q 258 49 335 -7 l 256 49 l 256 -187 l 42 -187 m 244 378 q 290 244 244 292 q 399 197 335 197 q 508 245 464 197 q 551 378 551 293 q 508 510 551 463 q 399 558 464 558 q 290 511 335 558 q 244 378 244 464 z "},"q":{"ha":792,"x_min":19,"x_max":751,"o":"m 538 -187 l 538 49 l 535 49 q 351 -7 458 -7 q 181 40 257 -7 q 63 174 106 88 q 19 376 19 261 q 62 578 19 492 q 179 712 104 664 q 351 760 254 760 q 460 742 407 760 q 551 686 513 725 l 554 686 l 554 753 l 751 753 l 751 -187 l 538 -187 m 242 378 q 285 245 242 293 q 394 197 328 197 q 503 244 460 197 q 547 376 547 292 q 503 510 547 463 q 394 557 460 557 q 285 510 328 557 q 242 378 242 463 z "},"r":{"ha":447,"x_min":42,"x_max":435,"o":"m 42 0 l 42 753 l 231 753 l 231 693 l 233 693 q 379 760 283 760 q 406 758 392 760 q 435 754 421 757 l 435 536 q 351 554 392 554 q 283 531 311 554 q 256 454 256 507 l 256 0 l 42 0 z "},"ŕ":{"ha":447,"x_min":42,"x_max":474,"o":"m 42 0 l 42 753 l 231 753 l 231 693 l 233 693 q 379 760 283 760 q 406 758 392 760 q 435 754 421 757 l 435 536 q 351 554 392 554 q 283 531 311 554 q 256 454 256 507 l 256 0 l 42 0 m 149 811 l 250 1038 l 474 1038 l 333 811 l 149 811 z "},"ř":{"ha":447,"x_min":-15,"x_max":507,"o":"m 42 0 l 42 753 l 231 753 l 231 693 l 233 693 q 379 760 283 760 q 406 758 392 760 q 435 754 421 757 l 435 536 q 351 554 392 554 q 283 531 311 554 q 256 454 256 507 l 256 0 l 42 0 m -15 1038 l 172 1038 l 243 940 l 246 940 l 318 1038 l 507 1038 l 346 811 l 143 811 l -15 1038 z "},"ŗ":{"ha":447,"x_min":24,"x_max":435,"o":"m 42 0 l 42 753 l 231 753 l 231 693 l 233 693 q 379 760 283 760 q 406 758 392 760 q 435 754 421 757 l 435 536 q 351 554 392 554 q 283 531 311 554 q 256 454 256 507 l 256 0 l 42 0 m 24 -243 l 51 -51 l 246 -51 l 189 -243 l 24 -243 z "},"s":{"ha":451,"x_min":24,"x_max":442,"o":"m 182 -11 q 26 14 101 -11 l 26 235 q 97 195 65 208 q 157 182 128 182 q 199 193 183 182 q 214 226 214 204 q 203 259 214 243 q 168 299 192 275 l 111 358 q 44 452 64 406 q 24 551 24 499 q 89 709 24 654 q 265 764 154 764 q 326 760 296 764 q 389 749 357 756 l 389 557 q 332 580 358 572 q 285 588 306 588 q 236 551 236 588 q 269 496 236 529 l 336 431 q 417 330 392 378 q 442 221 442 282 q 372 50 442 111 q 182 -11 301 -11 z "},"ś":{"ha":451,"x_min":24,"x_max":443,"o":"m 182 -11 q 26 14 101 -11 l 26 235 q 97 195 65 208 q 157 182 128 182 q 199 193 183 182 q 214 226 214 204 q 203 259 214 243 q 168 299 192 275 l 111 358 q 44 452 64 406 q 24 551 24 499 q 89 709 24 654 q 265 764 154 764 q 326 760 296 764 q 389 749 357 756 l 389 557 q 332 580 358 572 q 285 588 306 588 q 236 551 236 588 q 269 496 236 529 l 336 431 q 417 330 392 378 q 442 221 442 282 q 372 50 442 111 q 182 -11 301 -11 m 118 811 l 219 1038 l 443 1038 l 303 811 l 118 811 z "},"š":{"ha":451,"x_min":-46,"x_max":476,"o":"m 182 -11 q 26 14 101 -11 l 26 235 q 97 195 65 208 q 157 182 128 182 q 199 193 183 182 q 214 226 214 204 q 203 259 214 243 q 168 299 192 275 l 111 358 q 44 452 64 406 q 24 551 24 499 q 89 709 24 654 q 265 764 154 764 q 326 760 296 764 q 389 749 357 756 l 389 557 q 332 580 358 572 q 285 588 306 588 q 236 551 236 588 q 269 496 236 529 l 336 431 q 417 330 392 378 q 442 221 442 282 q 372 50 442 111 q 182 -11 301 -11 m -46 1038 l 142 1038 l 213 940 l 215 940 l 288 1038 l 476 1038 l 315 811 l 113 811 l -46 1038 z "},"ş":{"ha":451,"x_min":24,"x_max":442,"o":"m 244 -215 l 49 -164 l 119 -7 q 26 14 71 0 l 26 235 q 97 195 65 208 q 157 182 128 182 q 199 193 183 182 q 214 226 214 204 q 203 259 214 243 q 168 299 192 275 l 111 358 q 44 452 64 406 q 24 551 24 499 q 89 709 24 654 q 265 764 154 764 q 326 760 296 764 q 389 749 357 756 l 389 557 q 332 580 358 572 q 285 588 306 588 q 236 551 236 588 q 269 496 236 529 l 336 431 q 417 330 392 378 q 442 221 442 282 q 404 87 442 142 q 300 8 367 32 l 244 -215 z "},"ß":{"ha":779,"x_min":39,"x_max":763,"o":"m 432 -7 q 375 -3 404 -7 q 315 8 346 0 l 315 224 q 365 206 339 211 q 413 200 390 200 q 504 231 469 200 q 539 317 539 263 q 502 401 539 374 q 410 429 465 429 l 349 429 l 349 611 l 358 611 q 429 640 404 611 q 454 713 454 669 q 427 786 454 758 q 354 814 400 814 q 280 784 307 814 q 253 697 253 754 l 253 0 l 39 0 l 39 701 q 122 930 39 850 q 356 1010 204 1010 q 582 941 499 1010 q 665 754 665 872 q 642 649 665 694 q 582 574 618 603 l 582 571 q 712 481 661 547 q 763 307 763 414 q 721 142 763 213 q 605 32 679 71 q 432 -7 531 -7 z "},"t":{"ha":457,"x_min":7,"x_max":432,"o":"m 297 -10 q 135 44 190 -10 q 81 218 81 99 l 81 565 l 7 565 l 7 696 q 102 755 71 717 q 142 867 133 793 l 146 903 l 294 903 l 294 753 l 432 753 l 432 565 l 294 565 l 294 256 q 310 209 294 222 q 350 196 325 196 q 425 214 385 196 l 425 8 q 365 -5 397 0 q 297 -10 333 -10 z "},"ŧ":{"ha":460,"x_min":8,"x_max":435,"o":"m 8 346 l 8 500 l 92 500 l 92 581 l 8 581 l 8 696 q 101 755 71 719 q 140 857 131 790 l 147 903 l 296 903 l 296 753 l 435 753 l 435 581 l 296 581 l 296 500 l 435 500 l 435 346 l 296 346 l 296 256 q 312 209 296 222 q 353 196 328 196 q 388 200 368 196 q 428 214 407 204 l 428 8 q 367 -5 400 0 q 300 -10 335 -10 q 143 44 194 -10 q 92 218 92 99 l 92 346 l 8 346 z "},"ť":{"ha":457,"x_min":7,"x_max":526,"o":"m 297 -10 q 135 44 190 -10 q 81 218 81 99 l 81 565 l 7 565 l 7 696 q 102 755 71 717 q 142 867 133 793 l 146 903 l 294 903 l 294 753 l 432 753 l 432 565 l 294 565 l 294 256 q 310 209 294 222 q 350 196 325 196 q 425 214 385 196 l 425 8 q 365 -5 397 0 q 297 -10 333 -10 m 343 808 l 343 1086 l 526 1086 l 481 808 l 343 808 z "},"ţ":{"ha":457,"x_min":7,"x_max":432,"o":"m 7 696 q 102 755 71 717 q 142 867 133 793 l 146 903 l 294 903 l 294 753 l 432 753 l 432 565 l 294 565 l 294 256 q 310 209 294 222 q 350 196 325 196 q 425 214 385 196 l 425 8 q 378 -2 403 3 q 326 -8 354 -7 l 275 -215 l 79 -164 l 164 22 q 81 218 81 72 l 81 565 l 7 565 l 7 696 z "},"u":{"ha":679,"x_min":39,"x_max":638,"o":"m 274 -8 q 101 58 164 -8 q 39 239 39 125 l 39 753 l 253 753 l 253 290 q 274 220 253 246 q 336 194 296 194 q 400 220 376 194 q 424 290 424 246 l 424 753 l 638 753 l 638 0 l 450 0 l 450 63 l 447 63 q 274 -8 381 -8 z "},"ú":{"ha":679,"x_min":39,"x_max":638,"o":"m 274 -8 q 101 58 164 -8 q 39 239 39 125 l 39 753 l 253 753 l 253 290 q 274 220 253 246 q 336 194 296 194 q 400 220 376 194 q 424 290 424 246 l 424 753 l 638 753 l 638 0 l 450 0 l 450 63 l 447 63 q 274 -8 381 -8 m 240 811 l 342 1038 l 565 1038 l 425 811 l 240 811 z "},"û":{"ha":679,"x_min":39,"x_max":638,"o":"m 274 -8 q 101 58 164 -8 q 39 239 39 125 l 39 753 l 253 753 l 253 290 q 274 220 253 246 q 336 194 296 194 q 400 220 376 194 q 424 290 424 246 l 424 753 l 638 753 l 638 0 l 450 0 l 450 63 l 447 63 q 274 -8 381 -8 m 76 811 l 238 1038 l 440 1038 l 599 811 l 411 811 l 340 907 l 338 907 l 265 811 l 76 811 z "},"ü":{"ha":679,"x_min":39,"x_max":638,"o":"m 274 -8 q 101 58 164 -8 q 39 239 39 125 l 39 753 l 253 753 l 253 290 q 274 220 253 246 q 336 194 296 194 q 400 220 376 194 q 424 290 424 246 l 424 753 l 638 753 l 638 0 l 450 0 l 450 63 l 447 63 q 274 -8 381 -8 m 97 901 q 126 972 97 944 q 200 1000 154 1000 q 275 973 247 1000 q 303 901 303 946 q 274 831 303 858 q 200 803 244 803 q 126 831 154 803 q 97 901 97 858 m 375 901 q 404 972 375 944 q 478 1000 433 1000 q 553 973 525 1000 q 581 901 581 946 q 552 831 581 858 q 478 803 524 803 q 404 831 433 803 q 375 901 375 858 z "},"ù":{"ha":679,"x_min":39,"x_max":638,"o":"m 274 -8 q 101 58 164 -8 q 39 239 39 125 l 39 753 l 253 753 l 253 290 q 274 220 253 246 q 336 194 296 194 q 400 220 376 194 q 424 290 424 246 l 424 753 l 638 753 l 638 0 l 450 0 l 450 63 l 447 63 q 274 -8 381 -8 m 111 1038 l 339 1038 l 440 811 l 253 811 l 111 1038 z "},"ű":{"ha":679,"x_min":39,"x_max":668,"o":"m 274 -8 q 101 58 164 -8 q 39 239 39 125 l 39 753 l 253 753 l 253 290 q 274 220 253 246 q 336 194 296 194 q 400 220 376 194 q 424 290 424 246 l 424 753 l 638 753 l 638 0 l 450 0 l 450 63 l 447 63 q 274 -8 381 -8 m 129 811 l 204 1038 l 393 1038 l 290 811 l 129 811 m 374 811 l 472 1038 l 668 1038 l 540 811 l 374 811 z "},"ū":{"ha":679,"x_min":39,"x_max":638,"o":"m 274 -8 q 101 58 164 -8 q 39 239 39 125 l 39 753 l 253 753 l 253 290 q 274 220 253 246 q 336 194 296 194 q 400 220 376 194 q 424 290 424 246 l 424 753 l 638 753 l 638 0 l 450 0 l 450 63 l 447 63 q 274 -8 381 -8 m 125 825 l 125 983 l 553 983 l 553 825 l 125 825 z "},"ų":{"ha":679,"x_min":39,"x_max":638,"o":"m 274 -8 q 101 58 164 -8 q 39 239 39 125 l 39 753 l 253 753 l 253 290 q 274 220 253 246 q 336 194 296 194 q 400 220 376 194 q 424 290 424 246 l 424 753 l 638 753 l 638 0 q 577 -21 600 0 q 554 -67 554 -42 q 594 -101 554 -101 q 616 -99 606 -101 q 638 -92 626 -96 l 638 -232 q 550 -243 589 -243 q 426 -203 465 -243 q 388 -108 388 -162 q 450 14 388 -36 l 450 63 l 447 63 q 274 -8 381 -8 z "},"ů":{"ha":679,"x_min":39,"x_max":638,"o":"m 274 -8 q 101 58 164 -8 q 39 239 39 125 l 39 753 l 253 753 l 253 290 q 274 220 253 246 q 336 194 296 194 q 400 220 376 194 q 424 290 424 246 l 424 753 l 638 753 l 638 0 l 450 0 l 450 63 l 447 63 q 274 -8 381 -8 m 169 960 q 217 1076 169 1031 q 339 1122 265 1122 q 460 1076 413 1122 q 508 960 508 1031 q 460 844 508 889 q 339 799 413 799 q 217 844 265 799 q 169 960 169 889 m 279 960 q 296 917 279 933 q 339 900 313 900 q 382 917 365 900 q 399 960 399 933 q 382 1003 399 986 q 339 1019 365 1019 q 296 1003 313 1019 q 279 960 279 986 z "},"v":{"ha":665,"x_min":-12,"x_max":669,"o":"m 189 0 l -12 753 l 213 753 l 329 210 l 332 210 l 450 753 l 669 753 l 468 0 l 189 0 z "},"w":{"ha":1015,"x_min":-10,"x_max":1025,"o":"m 138 0 l -10 753 l 211 753 l 285 228 l 288 228 l 411 753 l 606 753 l 732 228 l 735 228 l 808 753 l 1025 753 l 874 0 l 614 0 l 508 436 l 506 436 l 399 0 l 138 0 z "},"ẃ":{"ha":1015,"x_min":-10,"x_max":1025,"o":"m 138 0 l -10 753 l 211 753 l 285 228 l 288 228 l 411 753 l 606 753 l 732 228 l 735 228 l 808 753 l 1025 753 l 874 0 l 614 0 l 508 436 l 506 436 l 399 0 l 138 0 m 410 811 l 511 1038 l 735 1038 l 594 811 l 410 811 z "},"ŵ":{"ha":1015,"x_min":-10,"x_max":1025,"o":"m 138 0 l -10 753 l 211 753 l 285 228 l 288 228 l 411 753 l 606 753 l 732 228 l 735 228 l 808 753 l 1025 753 l 874 0 l 614 0 l 508 436 l 506 436 l 399 0 l 138 0 m 246 811 l 407 1038 l 610 1038 l 768 811 l 581 811 l 510 907 l 507 907 l 435 811 l 246 811 z "},"ẅ":{"ha":1015,"x_min":-10,"x_max":1025,"o":"m 138 0 l -10 753 l 211 753 l 285 228 l 288 228 l 411 753 l 606 753 l 732 228 l 735 228 l 808 753 l 1025 753 l 874 0 l 614 0 l 508 436 l 506 436 l 399 0 l 138 0 m 267 901 q 295 972 267 944 q 369 1000 324 1000 q 444 973 417 1000 q 472 901 472 946 q 443 831 472 858 q 369 803 414 803 q 295 831 324 803 q 267 901 267 858 m 544 901 q 574 972 544 944 q 647 1000 603 1000 q 722 973 694 1000 q 750 901 750 946 q 722 831 750 858 q 647 803 693 803 q 574 831 603 803 q 544 901 544 858 z "},"ẁ":{"ha":1015,"x_min":-10,"x_max":1025,"o":"m 138 0 l -10 753 l 211 753 l 285 228 l 288 228 l 411 753 l 606 753 l 732 228 l 735 228 l 808 753 l 1025 753 l 874 0 l 614 0 l 508 436 l 506 436 l 399 0 l 138 0 m 281 1038 l 508 1038 l 610 811 l 422 811 l 281 1038 z "},"x":{"ha":632,"x_min":-10,"x_max":647,"o":"m -10 0 l 167 392 l -10 753 l 236 753 l 329 525 l 332 525 l 424 753 l 647 753 l 471 381 l 646 0 l 404 0 l 311 244 l 308 244 l 217 0 l -10 0 z "},"y":{"ha":667,"x_min":-17,"x_max":683,"o":"m 150 -187 l 218 18 l -17 753 l 211 753 l 332 303 l 335 303 l 465 753 l 683 753 l 368 -187 l 150 -187 z "},"ý":{"ha":667,"x_min":-17,"x_max":683,"o":"m 150 -187 l 218 18 l -17 753 l 211 753 l 332 303 l 335 303 l 465 753 l 683 753 l 368 -187 l 150 -187 m 236 811 l 338 1038 l 561 1038 l 421 811 l 236 811 z "},"ŷ":{"ha":667,"x_min":-17,"x_max":683,"o":"m 150 -187 l 218 18 l -17 753 l 211 753 l 332 303 l 335 303 l 465 753 l 683 753 l 368 -187 l 150 -187 m 72 811 l 233 1038 l 436 1038 l 594 811 l 407 811 l 336 907 l 333 907 l 261 811 l 72 811 z "},"ÿ":{"ha":667,"x_min":-17,"x_max":683,"o":"m 150 -187 l 218 18 l -17 753 l 211 753 l 332 303 l 335 303 l 465 753 l 683 753 l 368 -187 l 150 -187 m 93 901 q 122 972 93 944 q 196 1000 150 1000 q 271 973 243 1000 q 299 901 299 946 q 269 831 299 858 q 196 803 240 803 q 122 831 150 803 q 93 901 93 858 m 371 901 q 400 972 371 944 q 474 1000 429 1000 q 549 973 521 1000 q 576 901 576 946 q 548 831 576 858 q 474 803 519 803 q 400 831 429 803 q 371 901 371 858 z "},"ỳ":{"ha":667,"x_min":-17,"x_max":683,"o":"m 150 -187 l 218 18 l -17 753 l 211 753 l 332 303 l 335 303 l 465 753 l 683 753 l 368 -187 l 150 -187 m 107 1038 l 335 1038 l 436 811 l 249 811 l 107 1038 z "},"z":{"ha":547,"x_min":18,"x_max":526,"o":"m 18 0 l 18 136 l 261 571 l 31 571 l 31 753 l 521 753 l 521 617 l 279 183 l 526 183 l 526 0 l 18 0 z "},"ź":{"ha":547,"x_min":18,"x_max":526,"o":"m 18 0 l 18 136 l 261 571 l 31 571 l 31 753 l 521 753 l 521 617 l 279 183 l 526 183 l 526 0 l 18 0 m 175 811 l 276 1038 l 500 1038 l 360 811 l 175 811 z "},"ž":{"ha":547,"x_min":11,"x_max":533,"o":"m 18 0 l 18 136 l 261 571 l 31 571 l 31 753 l 521 753 l 521 617 l 279 183 l 526 183 l 526 0 l 18 0 m 11 1038 l 199 1038 l 269 940 l 272 940 l 344 1038 l 533 1038 l 372 811 l 169 811 l 11 1038 z "},"ż":{"ha":547,"x_min":18,"x_max":526,"o":"m 18 0 l 18 136 l 261 571 l 31 571 l 31 753 l 521 753 l 521 617 l 279 183 l 526 183 l 526 0 l 18 0 m 150 919 q 184 1002 150 972 q 274 1032 218 1032 q 364 1002 331 1032 q 397 919 397 972 q 364 838 397 868 q 274 807 331 807 q 184 838 218 807 q 150 919 150 868 z "},"ﬁ":{"ha":732,"x_min":13,"x_max":708,"o":"m 82 776 q 142 956 82 897 q 304 1014 201 1014 q 362 1010 335 1014 q 411 999 389 1006 l 411 815 q 383 826 397 822 q 353 829 368 829 q 312 815 328 829 q 296 767 296 801 l 296 753 l 422 753 l 422 565 l 296 565 l 296 0 l 82 0 l 82 565 l 13 565 l 13 753 l 82 753 l 82 776 m 461 919 q 495 1002 461 972 q 585 1032 529 1032 q 675 1002 642 1032 q 708 919 708 972 q 675 838 708 868 q 585 807 642 807 q 495 838 529 807 q 461 919 461 868 m 478 0 l 478 753 l 692 753 l 692 0 l 478 0 z "},"ﬂ":{"ha":733,"x_min":13,"x_max":692,"o":"m 82 776 q 142 956 82 897 q 304 1014 201 1014 q 362 1010 335 1014 q 411 999 389 1006 l 411 815 q 383 826 397 822 q 353 829 368 829 q 312 815 328 829 q 296 767 296 801 l 296 753 l 422 753 l 422 565 l 296 565 l 296 0 l 82 0 l 82 565 l 13 565 l 13 753 l 82 753 l 82 776 m 478 0 l 478 999 l 692 999 l 692 0 l 478 0 z "},"ª":{"ha":486,"x_min":24,"x_max":453,"o":"m 182 468 q 67 512 110 468 q 24 631 24 556 q 69 749 24 708 q 183 789 115 789 q 281 758 244 789 l 283 758 l 283 775 q 259 824 283 806 q 189 842 235 842 q 128 833 158 842 q 69 813 97 825 l 69 946 q 242 976 153 976 q 398 928 343 976 q 453 779 453 879 l 453 474 l 294 474 l 294 506 l 292 506 q 182 468 251 468 m 182 635 q 199 597 182 611 q 239 582 215 582 q 278 597 263 582 q 293 635 293 611 q 278 674 293 660 q 239 688 263 688 q 199 674 215 688 q 182 635 182 660 z "},"º":{"ha":567,"x_min":21,"x_max":546,"o":"m 283 465 q 146 497 206 465 q 53 587 86 529 q 21 721 21 644 q 93 906 21 836 q 283 976 165 976 q 474 906 401 976 q 546 721 546 836 q 513 587 546 644 q 422 497 481 529 q 283 465 363 465 m 197 721 q 222 658 197 682 q 283 633 246 633 q 345 658 321 633 q 369 721 369 682 q 345 785 369 761 q 283 810 321 810 q 222 785 246 810 q 197 721 197 761 z "},"₀":{"ha":576,"x_min":31,"x_max":547,"o":"m 289 -156 q 98 -72 165 -156 q 31 168 31 13 q 98 408 31 324 q 289 492 165 492 q 480 408 413 492 q 547 168 547 324 q 480 -72 547 13 q 289 -156 413 -156 m 226 168 q 289 18 226 18 q 350 168 350 18 q 289 318 350 318 q 226 168 226 318 z "},"₁":{"ha":326,"x_min":21,"x_max":274,"o":"m 90 -146 l 90 313 l 21 313 l 21 482 l 274 482 l 274 -146 l 90 -146 z "},"₂":{"ha":497,"x_min":31,"x_max":468,"o":"m 40 -146 l 40 -42 l 264 225 q 289 285 289 254 q 278 317 289 304 q 244 331 267 331 q 210 315 222 331 q 197 276 197 300 q 201 242 197 263 l 33 242 q 31 262 32 251 q 31 283 31 272 q 90 435 31 378 q 254 492 149 492 q 412 440 356 492 q 468 300 468 388 q 393 117 468 203 l 286 -3 l 467 -3 l 467 -146 l 40 -146 z "},"₃":{"ha":515,"x_min":31,"x_max":485,"o":"m 253 -156 q 89 -100 147 -156 q 31 57 31 -44 l 203 57 q 217 21 203 35 q 254 7 232 7 q 306 61 306 7 q 238 118 306 118 l 143 118 l 143 217 l 246 329 l 43 329 l 43 482 l 463 482 l 463 364 l 342 232 q 449 170 414 217 q 485 56 485 124 q 422 -99 485 -42 q 253 -156 360 -156 z "},"₄":{"ha":536,"x_min":31,"x_max":507,"o":"m 276 -146 l 276 -60 l 31 -60 l 31 44 l 183 482 l 453 482 l 451 100 l 507 100 l 507 -60 l 451 -60 l 451 -146 l 276 -146 m 204 83 l 289 83 l 297 360 l 294 360 l 204 83 z "},"₅":{"ha":513,"x_min":32,"x_max":482,"o":"m 254 -156 q 92 -102 153 -156 q 32 47 32 -49 l 206 47 q 221 17 207 29 q 254 6 235 6 q 304 67 304 6 q 289 113 304 99 q 251 126 274 126 q 204 99 218 126 l 42 99 l 60 482 l 454 482 l 454 326 l 218 326 l 211 242 l 214 242 q 299 264 251 264 q 427 216 372 264 q 482 65 482 168 q 422 -95 482 -35 q 254 -156 363 -156 z "},"₆":{"ha":543,"x_min":29,"x_max":513,"o":"m 419 482 l 307 289 q 457 225 401 283 q 513 72 513 167 q 447 -92 513 -29 q 269 -156 381 -156 q 94 -94 160 -156 q 29 72 29 -32 q 45 170 29 121 q 100 286 61 219 l 215 482 l 419 482 m 213 74 q 228 26 213 44 q 271 7 244 7 q 314 25 299 7 q 329 74 329 43 q 314 121 329 103 q 271 139 299 139 q 228 121 244 139 q 213 74 213 103 z "},"₇":{"ha":433,"x_min":31,"x_max":404,"o":"m 31 313 l 31 482 l 404 482 l 404 371 l 249 -146 l 57 -146 l 201 313 l 31 313 z "},"₈":{"ha":528,"x_min":31,"x_max":497,"o":"m 264 -156 q 92 -103 154 -156 q 31 33 31 -51 q 122 186 31 140 l 122 189 q 50 321 50 236 q 108 445 50 399 q 264 492 165 492 q 420 445 363 492 q 478 321 478 399 q 406 189 478 236 l 406 186 q 497 33 497 140 q 435 -103 497 -51 q 264 -156 374 -156 m 206 54 q 222 12 206 28 q 264 -4 238 -4 q 306 12 290 -4 q 322 54 322 28 q 306 94 322 78 q 264 111 290 111 q 222 94 238 111 q 206 54 206 78 m 214 294 q 228 258 214 272 q 264 244 242 244 q 300 258 286 244 q 314 294 314 272 q 300 329 314 315 q 264 343 286 343 q 228 329 242 343 q 214 294 214 315 z "},"₉":{"ha":543,"x_min":31,"x_max":514,"o":"m 124 -146 l 236 47 q 87 112 143 53 q 31 264 31 171 q 97 428 31 365 q 274 492 163 492 q 449 430 385 492 q 514 264 514 368 q 498 167 514 217 q 443 50 482 117 l 328 -146 l 124 -146 m 214 263 q 230 215 214 233 q 272 197 246 197 q 315 215 299 197 q 331 263 331 233 q 315 310 331 292 q 272 329 299 329 q 230 311 246 329 q 214 263 214 293 z "},"⁰":{"ha":576,"x_min":31,"x_max":547,"o":"m 289 444 q 98 528 165 444 q 31 768 31 613 q 98 1008 31 924 q 289 1092 165 1092 q 480 1008 413 1092 q 547 768 547 924 q 480 528 547 613 q 289 444 413 444 m 226 768 q 289 618 226 618 q 350 768 350 618 q 289 918 350 918 q 226 768 226 918 z "},"¹":{"ha":326,"x_min":21,"x_max":274,"o":"m 90 454 l 90 913 l 21 913 l 21 1082 l 274 1082 l 274 454 l 90 454 z "},"²":{"ha":497,"x_min":31,"x_max":468,"o":"m 40 453 l 40 557 l 264 824 q 289 883 289 853 q 278 916 289 903 q 244 929 267 929 q 210 914 222 929 q 197 875 197 899 q 201 840 197 861 l 33 840 q 31 860 32 850 q 31 882 31 871 q 90 1033 31 976 q 254 1090 149 1090 q 412 1038 356 1090 q 468 899 468 986 q 393 715 468 801 l 286 596 l 467 596 l 467 453 l 40 453 z "},"³":{"ha":515,"x_min":31,"x_max":485,"o":"m 253 444 q 89 500 147 444 q 31 657 31 556 l 203 657 q 217 621 203 635 q 254 607 232 607 q 306 661 306 607 q 238 718 306 718 l 143 718 l 143 817 l 246 929 l 43 929 l 43 1082 l 463 1082 l 463 964 l 342 832 q 449 770 414 817 q 485 656 485 724 q 422 501 485 558 q 253 444 360 444 z "},"⁴":{"ha":536,"x_min":31,"x_max":507,"o":"m 276 454 l 276 540 l 31 540 l 31 644 l 183 1082 l 453 1082 l 451 700 l 507 700 l 507 540 l 451 540 l 451 454 l 276 454 m 204 683 l 289 683 l 297 960 l 294 960 l 204 683 z "},"⁵":{"ha":513,"x_min":32,"x_max":482,"o":"m 254 444 q 92 498 153 444 q 32 647 32 551 l 206 647 q 221 617 207 629 q 254 606 235 606 q 304 667 304 606 q 289 713 304 699 q 251 726 274 726 q 204 699 218 726 l 42 699 l 60 1082 l 454 1082 l 454 926 l 218 926 l 211 842 l 214 842 q 299 864 251 864 q 427 816 372 864 q 482 665 482 768 q 422 505 482 565 q 254 444 363 444 z "},"⁶":{"ha":543,"x_min":29,"x_max":513,"o":"m 419 1082 l 307 889 q 457 825 401 883 q 513 672 513 767 q 447 508 513 571 q 269 444 381 444 q 94 506 160 444 q 29 672 29 568 q 45 770 29 721 q 100 886 61 819 l 215 1082 l 419 1082 m 213 674 q 228 626 213 644 q 271 607 244 607 q 314 625 299 607 q 329 674 329 643 q 314 721 329 703 q 271 739 299 739 q 228 721 244 739 q 213 674 213 703 z "},"⁷":{"ha":433,"x_min":31,"x_max":404,"o":"m 31 913 l 31 1082 l 404 1082 l 404 971 l 249 454 l 57 454 l 201 913 l 31 913 z "},"⁸":{"ha":528,"x_min":31,"x_max":497,"o":"m 264 444 q 92 497 154 444 q 31 633 31 549 q 122 786 31 740 l 122 789 q 50 921 50 836 q 108 1045 50 999 q 264 1092 165 1092 q 420 1045 363 1092 q 478 921 478 999 q 406 789 478 836 l 406 786 q 497 633 497 740 q 435 497 497 549 q 264 444 374 444 m 206 654 q 222 612 206 628 q 264 596 238 596 q 306 612 290 596 q 322 654 322 628 q 306 694 322 678 q 264 711 290 711 q 222 694 238 711 q 206 654 206 678 m 214 894 q 228 858 214 872 q 264 844 242 844 q 300 858 286 844 q 314 894 314 872 q 300 929 314 915 q 264 943 286 943 q 228 929 242 943 q 214 894 214 915 z "},"⁹":{"ha":543,"x_min":31,"x_max":514,"o":"m 124 454 l 236 647 q 87 712 143 653 q 31 864 31 771 q 97 1028 31 965 q 274 1092 163 1092 q 449 1030 385 1092 q 514 864 514 968 q 498 767 514 817 q 443 650 482 717 l 328 454 l 124 454 m 214 863 q 230 815 214 833 q 272 797 246 797 q 315 815 299 797 q 331 863 331 833 q 315 910 331 892 q 272 929 299 929 q 230 911 246 929 q 214 863 214 893 z "},"⁄":{"ha":818,"x_min":6,"x_max":813,"o":"m 6 0 l 626 969 l 813 969 l 192 0 l 6 0 z "},"½":{"ha":1221,"x_min":21,"x_max":1190,"o":"m 90 342 l 90 800 l 21 800 l 21 969 l 274 969 l 274 342 l 90 342 m 143 0 l 764 969 l 950 969 l 329 0 l 143 0 m 753 429 q 812 581 753 524 q 976 638 871 638 q 1134 585 1078 638 q 1190 446 1190 533 q 1115 263 1190 349 l 1008 143 l 1189 143 l 1189 0 l 763 0 l 763 104 l 986 371 q 1011 431 1011 400 q 1000 463 1011 450 q 967 476 989 476 q 932 461 944 476 q 919 422 919 446 q 924 388 919 408 l 756 388 q 753 408 754 397 q 753 429 753 418 z "},"⅓":{"ha":1263,"x_min":21,"x_max":1232,"o":"m 90 342 l 90 800 l 21 800 l 21 969 l 274 969 l 274 342 l 90 342 m 143 0 l 764 969 l 950 969 l 329 0 l 143 0 m 778 203 l 950 203 q 965 167 950 181 q 1001 153 979 153 q 1053 207 1053 153 q 985 264 1053 264 l 890 264 l 890 363 l 993 475 l 790 475 l 790 628 l 1210 628 l 1210 510 l 1089 378 q 1197 316 1161 363 q 1232 201 1232 269 q 1169 47 1232 104 q 1000 -10 1107 -10 q 836 46 894 -10 q 778 203 778 101 z "},"⅔":{"ha":1433,"x_min":31,"x_max":1403,"o":"m 40 342 l 40 446 l 264 713 q 289 772 289 742 q 278 805 289 792 q 244 818 267 818 q 210 803 222 818 q 197 764 197 788 q 201 729 197 750 l 33 729 q 31 749 32 739 q 31 771 31 760 q 90 922 31 865 q 254 979 149 979 q 412 927 356 979 q 468 788 468 875 q 393 604 468 690 l 286 485 l 467 485 l 467 342 l 40 342 m 314 0 l 935 969 l 1121 969 l 500 0 l 314 0 m 949 203 l 1121 203 q 1135 167 1121 181 q 1172 153 1150 153 q 1224 207 1224 153 q 1156 264 1224 264 l 1061 264 l 1061 363 l 1164 475 l 961 475 l 961 628 l 1381 628 l 1381 510 l 1260 378 q 1367 316 1332 363 q 1403 201 1403 269 q 1340 47 1403 104 q 1171 -10 1278 -10 q 1007 46 1065 -10 q 949 203 949 101 z "},"¼":{"ha":1207,"x_min":21,"x_max":1176,"o":"m 90 342 l 90 800 l 21 800 l 21 969 l 274 969 l 274 342 l 90 342 m 143 0 l 764 969 l 950 969 l 329 0 l 143 0 m 700 86 l 700 190 l 853 628 l 1122 628 l 1121 246 l 1176 246 l 1176 86 l 1121 86 l 1121 0 l 946 0 l 946 86 l 700 86 m 874 229 l 958 229 l 967 506 l 964 506 l 874 229 z "},"¾":{"ha":1354,"x_min":31,"x_max":1324,"o":"m 253 332 q 89 388 147 332 q 31 544 31 443 l 203 544 q 217 508 203 522 q 254 494 232 494 q 306 549 306 494 q 238 606 306 606 l 143 606 l 143 704 l 246 817 l 43 817 l 43 969 l 463 969 l 463 851 l 342 719 q 449 658 414 704 q 485 543 485 611 q 422 389 485 446 q 253 332 360 332 m 290 0 l 911 969 l 1097 969 l 476 0 l 290 0 m 847 86 l 847 190 l 1000 628 l 1269 628 l 1268 246 l 1324 246 l 1324 86 l 1268 86 l 1268 0 l 1093 0 l 1093 86 l 847 86 m 1021 229 l 1106 229 l 1114 506 l 1111 506 l 1021 229 z "},"⅛":{"ha":1225,"x_min":21,"x_max":1194,"o":"m 90 342 l 90 800 l 21 800 l 21 969 l 274 969 l 274 342 l 90 342 m 143 0 l 764 969 l 950 969 l 329 0 l 143 0 m 728 179 q 819 332 728 286 l 819 335 q 747 467 747 382 q 805 591 747 544 q 961 638 863 638 q 1117 591 1060 638 q 1175 467 1175 544 q 1103 335 1175 382 l 1103 332 q 1194 179 1194 286 q 1133 42 1194 94 q 961 -10 1071 -10 q 790 42 851 -10 q 728 179 728 94 m 903 200 q 919 158 903 174 q 961 142 935 142 q 1003 158 988 142 q 1019 200 1019 174 q 1003 240 1019 224 q 961 257 988 257 q 919 240 935 257 q 903 200 903 224 m 911 440 q 925 404 911 418 q 961 390 939 390 q 997 404 983 390 q 1011 440 1011 418 q 997 475 1011 461 q 961 489 983 489 q 925 475 939 489 q 911 440 911 461 z "},"⅜":{"ha":1372,"x_min":31,"x_max":1342,"o":"m 253 332 q 89 388 147 332 q 31 544 31 443 l 203 544 q 217 508 203 522 q 254 494 232 494 q 306 549 306 494 q 238 606 306 606 l 143 606 l 143 704 l 246 817 l 43 817 l 43 969 l 463 969 l 463 851 l 342 719 q 449 658 414 704 q 485 543 485 611 q 422 389 485 446 q 253 332 360 332 m 290 0 l 911 969 l 1097 969 l 476 0 l 290 0 m 875 179 q 967 332 875 286 l 967 335 q 894 467 894 382 q 952 591 894 544 q 1108 638 1010 638 q 1265 591 1207 638 q 1322 467 1322 544 q 1250 335 1322 382 l 1250 332 q 1342 179 1342 286 q 1280 42 1342 94 q 1108 -10 1218 -10 q 937 42 999 -10 q 875 179 875 94 m 1050 200 q 1066 158 1050 174 q 1108 142 1082 142 q 1151 158 1135 142 q 1167 200 1167 174 q 1151 240 1167 224 q 1108 257 1135 257 q 1066 240 1082 257 q 1050 200 1050 224 m 1058 440 q 1072 404 1058 418 q 1108 390 1086 390 q 1144 404 1131 390 q 1158 440 1158 418 q 1144 475 1158 461 q 1108 489 1131 489 q 1072 475 1086 489 q 1058 440 1058 461 z "},"⅝":{"ha":1356,"x_min":32,"x_max":1325,"o":"m 254 332 q 92 385 153 332 q 32 535 32 439 l 206 535 q 221 505 207 517 q 254 493 235 493 q 304 554 304 493 q 289 600 304 586 q 251 614 274 614 q 204 586 218 614 l 42 586 l 60 969 l 454 969 l 454 814 l 218 814 l 211 729 l 214 729 q 299 751 251 751 q 427 703 372 751 q 482 553 482 656 q 422 392 482 453 q 254 332 363 332 m 274 0 l 894 969 l 1081 969 l 460 0 l 274 0 m 858 179 q 950 332 858 286 l 950 335 q 878 467 878 382 q 935 591 878 544 q 1092 638 993 638 q 1248 591 1190 638 q 1306 467 1306 544 q 1233 335 1306 382 l 1233 332 q 1325 179 1325 286 q 1263 42 1325 94 q 1092 -10 1201 -10 q 920 42 982 -10 q 858 179 858 94 m 1033 200 q 1049 158 1033 174 q 1092 142 1065 142 q 1134 158 1118 142 q 1150 200 1150 174 q 1134 240 1150 224 q 1092 257 1118 257 q 1049 240 1065 257 q 1033 200 1033 224 m 1042 440 q 1056 404 1042 418 q 1092 390 1069 390 q 1128 404 1114 390 q 1142 440 1142 418 q 1128 475 1142 461 q 1092 489 1114 489 q 1056 475 1069 489 q 1042 440 1042 461 z "},"⅞":{"ha":1243,"x_min":31,"x_max":1213,"o":"m 31 800 l 31 969 l 404 969 l 404 858 l 249 342 l 57 342 l 201 800 l 31 800 m 161 0 l 782 969 l 968 969 l 347 0 l 161 0 m 746 179 q 838 332 746 286 l 838 335 q 765 467 765 382 q 823 591 765 544 q 979 638 881 638 q 1135 591 1078 638 q 1193 467 1193 544 q 1121 335 1193 382 l 1121 332 q 1213 179 1213 286 q 1151 42 1213 94 q 979 -10 1089 -10 q 808 42 869 -10 q 746 179 746 94 m 921 200 q 937 158 921 174 q 979 142 953 142 q 1022 158 1006 142 q 1038 200 1038 174 q 1022 240 1038 224 q 979 257 1006 257 q 937 240 953 257 q 921 200 921 224 m 929 440 q 943 404 929 418 q 979 390 957 390 q 1015 404 1001 390 q 1029 440 1029 418 q 1015 475 1029 461 q 979 489 1001 489 q 943 475 957 489 q 929 440 929 461 z "}," ":{"ha":93,"x_min":0,"x_max":0,"o":""},".":{"ha":344,"x_min":35,"x_max":308,"o":"m 172 -7 q 74 31 113 -7 q 35 128 35 68 q 74 223 35 186 q 172 260 113 260 q 271 223 233 260 q 308 128 308 186 q 271 31 308 68 q 172 -7 233 -7 z "},",":{"ha":340,"x_min":35,"x_max":307,"o":"m 56 -165 q 111 -86 90 -132 q 138 7 132 -40 q 64 41 93 10 q 35 125 35 72 q 74 219 35 185 q 169 253 114 253 q 265 217 224 253 q 307 96 307 181 q 279 -26 307 33 q 197 -125 251 -85 q 57 -176 142 -165 l 56 -165 z "},":":{"ha":350,"x_min":38,"x_max":311,"o":"m 175 -7 q 76 31 115 -7 q 38 128 38 68 q 76 223 38 186 q 175 260 114 260 q 274 223 236 260 q 311 128 311 186 q 274 31 311 68 q 175 -7 236 -7 m 38 626 q 76 722 38 685 q 175 760 114 760 q 274 722 236 760 q 311 626 311 685 q 274 531 311 568 q 175 493 236 493 q 76 531 115 493 q 38 626 38 568 z "},";":{"ha":350,"x_min":38,"x_max":311,"o":"m 175 493 q 76 531 115 493 q 38 626 38 568 q 76 722 38 685 q 175 760 114 760 q 274 722 236 760 q 311 626 311 685 q 274 531 311 568 q 175 493 236 493 m 39 125 q 78 218 39 183 q 174 253 117 253 q 271 215 231 253 q 311 96 311 178 q 283 -26 311 32 q 200 -125 256 -85 q 61 -176 144 -165 l 60 -165 q 116 -85 96 -129 q 142 7 136 -40 q 67 42 96 11 q 39 125 39 74 z "},"…":{"ha":1032,"x_min":35,"x_max":996,"o":"m 172 -7 q 74 31 113 -7 q 35 128 35 68 q 74 223 35 186 q 172 260 113 260 q 271 223 233 260 q 308 128 308 186 q 271 31 308 68 q 172 -7 233 -7 m 379 128 q 418 223 379 186 q 517 260 457 260 q 615 223 578 260 q 653 128 653 186 q 615 31 653 68 q 517 -7 578 -7 q 418 31 457 -7 q 379 128 379 68 m 722 128 q 761 223 722 186 q 860 260 800 260 q 958 223 921 260 q 996 128 996 186 q 958 31 996 68 q 860 -7 921 -7 q 761 31 800 -7 q 722 128 722 68 z "},"!":{"ha":311,"x_min":31,"x_max":282,"o":"m 56 275 l 42 969 l 271 969 l 257 275 l 56 275 m 31 107 q 66 193 31 161 q 156 225 101 225 q 247 193 211 225 q 282 107 282 161 q 247 23 282 54 q 156 -8 213 -8 q 65 23 100 -8 q 31 107 31 54 z "},"¡":{"ha":311,"x_min":31,"x_max":282,"o":"m 40 -187 l 56 507 l 256 507 l 269 -187 l 40 -187 m 31 675 q 65 759 31 728 q 156 790 100 790 q 247 759 211 790 q 282 675 282 728 q 246 589 282 621 q 156 557 210 557 q 65 589 100 557 q 31 675 31 621 z "},"?":{"ha":497,"x_min":26,"x_max":486,"o":"m 63 535 q 97 526 81 529 q 131 524 113 524 q 226 556 190 524 q 261 642 261 588 q 223 733 261 699 q 121 768 185 768 q 26 747 72 768 l 26 964 q 146 981 85 981 q 326 941 250 981 q 444 831 403 901 q 486 663 486 760 q 426 474 486 549 q 260 376 365 400 l 258 275 l 63 275 l 63 535 m 39 107 q 74 192 39 160 q 165 225 110 225 q 257 193 222 225 q 292 107 292 161 q 257 23 292 54 q 165 -8 222 -8 q 74 23 108 -8 q 39 107 39 54 z "},"¿":{"ha":492,"x_min":11,"x_max":471,"o":"m 350 -194 q 171 -155 247 -194 q 53 -44 94 -115 q 11 122 11 26 q 72 311 11 236 q 236 408 132 386 l 238 511 l 435 511 l 435 251 q 367 263 397 263 q 272 230 307 263 q 236 143 236 197 q 274 53 236 88 q 375 18 313 18 q 471 38 424 18 l 471 -178 q 350 -194 411 -194 m 206 678 q 240 763 206 731 q 332 794 275 794 q 423 763 389 794 q 457 678 457 731 q 423 593 457 626 q 332 560 389 560 q 240 592 275 560 q 206 678 206 625 z "},"·":{"ha":344,"x_min":35,"x_max":308,"o":"m 172 299 q 74 336 113 299 q 35 432 35 374 q 74 528 35 490 q 172 565 113 565 q 271 528 233 565 q 308 432 308 490 q 271 336 308 374 q 172 299 233 299 z "},"•":{"ha":579,"x_min":53,"x_max":526,"o":"m 290 197 q 167 228 221 197 q 83 311 114 258 q 53 432 53 364 q 83 554 53 501 q 167 637 113 607 q 290 667 221 667 q 413 637 360 667 q 497 554 467 607 q 526 432 526 501 q 497 310 526 364 q 413 227 467 257 q 290 197 360 197 z "},"*":{"ha":818,"x_min":24,"x_max":796,"o":"m 269 383 l 108 500 l 274 700 l 24 765 l 85 956 l 325 860 l 310 1118 l 508 1118 l 493 860 l 733 956 l 796 765 l 546 701 l 710 500 l 549 383 l 410 601 l 269 383 z "},"#":{"ha":976,"x_min":36,"x_max":940,"o":"m 444 0 l 492 199 l 350 199 l 303 0 l 97 0 l 144 199 l 36 199 l 53 376 l 186 376 l 239 593 l 113 593 l 128 771 l 281 771 l 328 969 l 533 969 l 486 771 l 628 771 l 675 969 l 881 969 l 833 771 l 940 771 l 925 593 l 792 593 l 739 376 l 865 376 l 849 199 l 697 199 l 650 0 l 444 0 m 392 376 l 533 376 l 586 593 l 444 593 l 392 376 z "},"/":{"ha":593,"x_min":19,"x_max":572,"o":"m 19 -125 l 353 1057 l 572 1057 l 238 -125 l 19 -125 z "},"\\":{"ha":596,"x_min":21,"x_max":576,"o":"m 356 -125 l 21 1057 l 242 1057 l 576 -125 l 356 -125 z "},"-":{"ha":369,"x_min":21,"x_max":347,"o":"m 21 335 l 21 535 l 347 535 l 347 335 l 21 335 z "},"‐":{"ha":369,"x_min":21,"x_max":347,"o":"m 21 335 l 21 535 l 347 535 l 347 335 l 21 335 z "},"­":{"ha":369,"x_min":21,"x_max":347,"o":"m 21 335 l 21 535 l 347 535 l 347 335 l 21 335 z "},"–":{"ha":619,"x_min":21,"x_max":597,"o":"m 21 335 l 21 535 l 597 535 l 597 335 l 21 335 z "},"—":{"ha":994,"x_min":21,"x_max":972,"o":"m 21 335 l 21 535 l 972 535 l 972 335 l 21 335 z "},"_":{"ha":646,"x_min":21,"x_max":625,"o":"m 21 -187 l 21 -1 l 625 -1 l 625 -187 l 21 -187 z "},"(":{"ha":436,"x_min":54,"x_max":433,"o":"m 201 -125 q 135 21 169 -62 q 78 213 101 104 q 54 460 54 321 q 78 708 54 599 q 139 903 103 817 q 214 1057 175 989 l 433 1057 q 356 903 393 989 q 294 708 318 817 q 271 460 271 599 q 294 213 271 321 q 353 21 318 104 q 421 -125 388 -62 l 201 -125 z "},")":{"ha":436,"x_min":7,"x_max":383,"o":"m 7 -125 q 82 26 46 -58 q 142 220 118 111 q 165 468 165 329 q 142 716 165 607 q 83 909 118 825 q 11 1057 47 993 l 232 1057 q 301 909 267 993 q 360 716 336 825 q 383 468 383 607 q 360 220 383 329 q 300 26 336 111 q 228 -125 264 -58 l 7 -125 z "},"{":{"ha":504,"x_min":18,"x_max":485,"o":"m 372 -132 q 139 104 139 -132 l 139 290 q 124 356 139 336 q 69 375 108 375 l 18 375 l 18 583 l 69 583 q 124 603 108 583 q 139 669 139 622 l 139 828 q 372 1064 139 1064 q 485 1050 429 1064 l 485 850 q 449 862 467 857 q 413 867 432 867 q 361 846 378 867 q 344 776 344 825 l 344 657 q 319 538 344 578 q 240 481 293 499 l 240 478 q 319 420 293 460 q 344 301 344 381 l 344 156 q 361 87 344 108 q 413 65 378 65 q 449 70 432 65 q 485 82 467 75 l 485 -118 q 372 -132 429 -132 z "},"}":{"ha":504,"x_min":21,"x_max":486,"o":"m 132 -132 q 21 -118 75 -132 l 21 82 q 56 70 38 75 q 92 65 74 65 q 144 87 128 65 q 161 156 161 108 l 161 301 q 187 420 161 381 q 265 478 213 460 l 265 481 q 187 538 213 499 q 161 657 161 578 l 161 776 q 144 846 161 825 q 92 867 128 867 q 56 862 74 867 q 21 850 38 857 l 21 1050 q 132 1064 75 1064 q 309 1006 251 1064 q 367 828 367 947 l 367 669 q 382 603 367 622 q 436 583 397 583 l 486 583 l 486 375 l 436 375 q 382 356 397 375 q 367 290 367 336 l 367 104 q 309 -73 367 -14 q 132 -132 251 -132 z "},"[":{"ha":396,"x_min":65,"x_max":381,"o":"m 65 -125 l 65 1057 l 381 1057 l 381 861 l 274 861 l 274 71 l 381 71 l 381 -125 l 65 -125 z "},"]":{"ha":396,"x_min":15,"x_max":331,"o":"m 15 -125 l 15 71 l 122 71 l 122 861 l 15 861 l 15 1057 l 331 1057 l 331 -125 l 15 -125 z "},"‚":{"ha":340,"x_min":35,"x_max":304,"o":"m 64 -143 q 144 3 131 -81 q 66 37 97 6 q 35 122 35 68 q 74 217 35 183 q 169 250 114 250 q 264 213 224 250 q 304 94 304 176 q 279 -15 304 38 q 202 -106 254 -68 q 65 -154 150 -143 l 64 -143 z "},"„":{"ha":633,"x_min":36,"x_max":597,"o":"m 357 -143 q 438 3 424 -81 q 359 37 390 6 q 328 122 328 68 q 367 217 328 183 q 463 250 407 250 q 557 213 517 250 q 597 94 597 176 q 572 -15 597 38 q 495 -106 547 -68 q 358 -154 443 -143 l 357 -143 m 36 122 q 76 217 36 183 q 171 250 115 250 q 265 213 225 250 q 306 94 306 176 q 281 -15 306 38 q 203 -106 256 -68 q 67 -154 151 -143 l 65 -143 q 146 3 132 -81 q 67 37 99 6 q 36 122 36 68 z "},"“":{"ha":632,"x_min":35,"x_max":596,"o":"m 463 628 q 367 665 408 628 q 326 783 326 703 q 351 893 326 840 q 429 983 376 946 q 565 1032 482 1021 l 568 1022 q 515 953 535 989 q 489 875 496 918 q 565 841 535 872 q 596 757 596 810 q 558 662 596 696 q 463 628 519 628 m 35 783 q 60 893 35 840 q 138 983 85 946 q 274 1032 190 1021 l 276 1022 q 224 953 243 989 q 197 875 204 918 q 274 841 243 872 q 304 757 304 810 q 266 662 304 696 q 171 628 228 628 q 76 665 117 628 q 35 783 35 703 z "},"”":{"ha":632,"x_min":35,"x_max":596,"o":"m 356 585 q 436 731 422 651 q 358 765 389 733 q 326 850 326 796 q 366 944 326 911 q 461 978 406 978 q 556 941 515 978 q 596 822 596 904 q 571 713 596 765 q 494 622 546 660 q 357 574 442 585 l 356 585 m 35 850 q 74 944 35 911 q 169 978 114 978 q 264 941 224 978 q 304 822 304 904 q 279 713 304 765 q 202 622 254 660 q 65 574 150 585 l 64 585 q 144 731 131 651 q 66 765 97 733 q 35 850 35 796 z "},"‘":{"ha":340,"x_min":35,"x_max":304,"o":"m 171 628 q 76 665 117 628 q 35 783 35 703 q 60 893 35 840 q 138 983 85 946 q 274 1032 190 1021 l 276 1022 q 224 953 243 989 q 197 875 204 918 q 274 841 243 872 q 304 757 304 810 q 266 662 304 696 q 171 628 228 628 z "},"’":{"ha":340,"x_min":35,"x_max":304,"o":"m 64 585 q 144 731 131 651 q 66 765 97 733 q 35 850 35 796 q 74 944 35 911 q 169 978 114 978 q 264 941 224 978 q 304 822 304 904 q 279 713 304 765 q 202 622 254 660 q 65 574 150 585 l 64 585 z "},"«":{"ha":724,"x_min":25,"x_max":704,"o":"m 200 79 l 25 376 l 200 674 l 404 674 l 232 379 l 408 79 l 200 79 m 321 376 l 494 674 l 700 674 l 528 379 l 704 79 l 494 79 l 321 376 z "},"»":{"ha":724,"x_min":19,"x_max":699,"o":"m 319 79 l 492 374 l 314 674 l 524 674 l 699 376 l 524 79 l 319 79 m 19 674 l 229 674 l 403 376 l 229 79 l 24 79 l 196 372 l 19 674 z "},"‹":{"ha":444,"x_min":25,"x_max":426,"o":"m 200 79 l 25 376 l 200 674 l 421 674 l 249 379 l 426 79 l 200 79 z "},"›":{"ha":444,"x_min":19,"x_max":419,"o":"m 24 79 l 196 372 l 19 674 l 246 674 l 419 376 l 246 79 l 24 79 z "},"\"":{"ha":490,"x_min":25,"x_max":465,"o":"m 47 581 l 25 969 l 222 969 l 207 581 l 47 581 m 268 969 l 465 969 l 443 581 l 282 581 l 268 969 z "},"'":{"ha":264,"x_min":25,"x_max":239,"o":"m 47 581 l 25 969 l 239 969 l 215 581 l 47 581 z "},"ƒ":{"ha":463,"x_min":3,"x_max":442,"o":"m 100 -194 q 50 -190 74 -194 q 3 -181 26 -186 l 3 7 q 53 -4 32 -4 q 84 6 71 -4 q 97 43 97 17 l 97 529 l 28 529 l 28 711 l 97 711 l 97 744 q 156 924 97 865 q 321 982 215 982 q 385 977 354 982 q 442 965 417 972 l 442 765 q 403 781 422 776 q 369 785 385 785 q 328 771 344 785 q 313 724 313 757 l 313 711 l 440 711 l 440 529 l 313 529 l 313 40 q 253 -138 313 -82 q 100 -194 194 -194 z "},"@":{"ha":1333,"x_min":29,"x_max":1303,"o":"m 683 -199 q 416 -153 536 -199 q 209 -24 296 -108 q 76 176 122 60 q 29 436 29 293 q 76 697 29 579 q 209 901 122 815 q 416 1034 296 988 q 682 1081 536 1081 q 1010 1007 871 1081 q 1226 800 1149 933 q 1303 489 1303 667 q 1231 219 1303 318 q 1033 121 1160 121 q 933 144 976 121 q 863 207 889 167 l 860 207 q 763 141 819 164 q 644 118 707 118 q 491 159 558 118 q 385 273 424 200 q 347 442 347 346 q 384 610 347 538 q 486 723 421 682 q 636 764 551 764 q 808 701 739 764 l 811 701 l 811 753 l 981 753 l 981 371 q 998 303 981 325 q 1042 282 1015 282 q 1108 331 1086 282 q 1131 467 1131 379 q 1076 705 1131 606 q 922 857 1022 804 q 685 910 822 910 q 436 851 542 910 q 273 687 331 793 q 215 439 215 581 q 274 195 215 299 q 439 35 332 92 q 689 -22 546 -22 q 835 -8 763 -22 q 978 38 908 7 l 978 -150 q 833 -187 906 -175 q 683 -199 760 -199 m 547 442 q 583 338 547 378 q 675 297 619 297 q 765 336 732 297 q 797 442 797 375 q 765 547 797 507 q 675 586 732 586 q 583 547 619 586 q 547 442 547 507 z "},"&":{"ha":774,"x_min":11,"x_max":765,"o":"m 296 -11 q 149 22 214 -11 q 48 117 85 56 q 11 264 11 179 q 57 422 11 360 q 174 515 103 485 l 174 518 q 87 599 121 550 q 53 721 53 647 q 137 909 53 836 q 371 982 221 982 q 463 975 415 982 q 561 956 510 968 l 561 749 q 472 774 515 764 q 393 783 429 783 q 302 756 333 783 q 271 686 271 728 q 301 617 271 643 q 381 592 331 592 l 475 592 l 475 683 l 688 683 l 688 592 l 765 592 l 765 415 l 688 415 l 688 0 l 507 0 l 507 71 l 504 71 q 408 8 461 28 q 296 -11 356 -11 m 244 296 q 277 210 244 240 q 358 181 310 181 q 445 216 411 181 q 479 315 479 251 l 479 415 l 375 415 q 280 384 315 415 q 244 296 244 353 z "},"¶":{"ha":796,"x_min":17,"x_max":744,"o":"m 332 -187 l 332 351 q 101 434 185 351 q 17 663 17 517 q 101 888 17 807 q 332 969 185 969 l 506 969 l 506 -187 l 332 -187 m 571 -187 l 571 969 l 744 969 l 744 -187 l 571 -187 z "},"§":{"ha":572,"x_min":24,"x_max":556,"o":"m 242 -167 q 144 -158 194 -167 q 49 -131 93 -149 l 49 110 q 145 54 101 72 q 224 36 189 36 q 294 94 294 36 q 240 178 294 135 l 146 253 q 24 481 24 350 q 42 581 24 533 q 93 660 61 629 q 59 719 69 689 q 49 783 49 749 q 124 949 49 888 q 321 1010 199 1010 q 472 985 389 1010 l 472 774 q 395 808 431 797 q 333 819 360 819 q 272 775 272 819 q 315 710 272 744 l 404 642 q 519 519 483 581 q 556 379 556 457 q 492 196 556 272 q 529 71 529 138 q 492 -53 529 0 q 391 -137 456 -107 q 242 -167 326 -167 m 206 499 q 218 451 206 474 q 260 404 231 428 l 356 328 q 374 379 374 349 q 361 427 374 404 q 321 472 349 450 l 224 549 q 206 499 206 526 z "},"©":{"ha":1313,"x_min":29,"x_max":1283,"o":"m 656 -194 q 401 -149 517 -194 q 203 -22 286 -104 q 74 176 119 61 q 29 429 29 290 q 74 683 29 568 q 203 880 119 797 q 401 1008 286 963 q 656 1053 517 1053 q 911 1008 796 1053 q 1110 880 1026 963 q 1238 683 1193 797 q 1283 429 1283 568 q 1238 176 1283 290 q 1110 -22 1193 61 q 911 -149 1026 -104 q 656 -194 796 -194 m 211 429 q 267 188 211 292 q 424 28 324 85 q 656 -29 524 -29 q 890 28 789 -29 q 1046 190 990 86 q 1101 429 1101 293 q 1046 669 1101 567 q 890 830 990 772 q 656 888 789 888 q 424 831 524 888 q 267 670 324 774 q 211 429 211 567 m 332 429 q 376 610 332 532 q 496 731 419 688 q 669 775 572 775 q 835 742 756 775 l 835 539 q 772 575 807 561 q 696 589 736 589 q 585 544 626 589 q 543 429 543 500 q 585 314 543 358 q 697 269 626 269 q 772 284 738 269 q 835 321 807 299 l 835 117 q 669 83 756 83 q 493 126 569 83 q 374 247 417 169 q 332 429 332 325 z "},"®":{"ha":1029,"x_min":36,"x_max":993,"o":"m 515 125 q 268 185 376 125 q 98 351 160 244 q 36 596 36 457 q 98 841 36 735 q 268 1007 160 947 q 515 1067 376 1067 q 762 1007 654 1067 q 931 841 869 947 q 993 596 993 735 q 931 351 993 457 q 762 185 869 244 q 515 125 654 125 m 169 596 q 213 412 169 490 q 333 290 256 333 q 515 247 411 247 q 697 290 619 247 q 817 412 775 333 q 860 596 860 490 q 817 780 860 701 q 697 901 775 858 q 515 944 619 944 q 333 901 411 944 q 213 780 256 858 q 169 596 169 701 m 340 349 l 340 860 l 553 860 q 665 823 624 860 q 707 718 707 786 q 684 635 707 667 q 624 592 661 603 l 624 589 q 706 464 706 568 l 706 349 l 568 349 l 568 456 q 554 513 568 496 q 508 529 540 529 l 476 529 l 476 349 l 340 349 m 476 647 l 515 647 q 571 701 571 647 q 515 753 571 753 l 476 753 l 476 647 z "},"™":{"ha":1257,"x_min":36,"x_max":1206,"o":"m 457 439 l 476 969 l 750 969 l 832 664 l 836 664 l 915 969 l 1188 969 l 1206 439 l 1022 439 l 1018 803 l 1014 803 l 908 439 l 751 439 l 646 803 l 643 803 l 638 439 l 457 439 m 36 800 l 36 969 l 421 969 l 421 800 l 319 800 l 319 439 l 138 439 l 138 800 l 36 800 z "},"°":{"ha":513,"x_min":22,"x_max":490,"o":"m 256 558 q 136 588 189 558 q 53 667 83 617 q 22 783 22 718 q 53 900 22 849 q 136 981 83 951 q 256 1010 189 1010 q 376 981 324 1010 q 460 900 429 951 q 490 783 490 849 q 460 667 490 718 q 376 588 429 617 q 256 558 324 558 m 190 783 q 209 735 190 754 q 256 717 228 717 q 303 735 285 717 q 322 783 322 754 q 303 831 322 813 q 256 850 285 850 q 209 831 228 850 q 190 783 190 813 z "},"|":{"ha":318,"x_min":58,"x_max":261,"o":"m 58 -125 l 58 1057 l 261 1057 l 261 -125 l 58 -125 z "},"¦":{"ha":311,"x_min":54,"x_max":257,"o":"m 54 578 l 54 1057 l 257 1057 l 257 578 l 54 578 m 54 -125 l 54 354 l 257 354 l 257 -125 l 54 -125 z "},"†":{"ha":528,"x_min":28,"x_max":500,"o":"m 164 315 l 164 721 l 28 721 l 28 908 l 164 908 l 164 1057 l 365 1057 l 365 908 l 500 908 l 500 721 l 365 721 l 365 315 l 164 315 z "},"‡":{"ha":529,"x_min":28,"x_max":501,"o":"m 164 315 l 164 443 l 28 443 l 28 606 l 164 606 l 164 767 l 28 767 l 28 929 l 164 929 l 164 1057 l 365 1057 l 365 929 l 501 929 l 501 767 l 365 767 l 365 606 l 501 606 l 501 443 l 365 443 l 365 315 l 164 315 z "},"¢":{"ha":532,"x_min":24,"x_max":504,"o":"m 240 0 l 250 163 q 84 277 144 193 q 24 485 24 361 q 84 692 24 608 q 250 807 144 776 l 240 969 l 433 969 l 426 818 q 465 812 446 817 q 504 800 485 807 l 504 596 q 396 631 451 631 q 288 592 329 631 q 246 485 246 554 q 288 378 246 417 q 396 339 329 339 q 504 374 451 339 l 504 169 q 465 158 485 163 q 426 151 446 154 l 433 0 l 240 0 z "},"¤":{"ha":828,"x_min":28,"x_max":799,"o":"m 414 169 q 247 210 317 169 l 151 104 l 28 228 l 135 324 q 107 399 117 358 q 97 485 97 439 q 107 571 97 531 q 135 646 117 611 l 28 742 l 151 865 l 247 760 q 414 800 319 800 q 581 760 508 800 l 675 865 l 799 742 l 693 646 q 721 571 711 611 q 731 485 731 531 q 721 399 731 439 q 693 324 711 358 l 799 228 l 675 104 l 581 210 q 414 169 508 169 m 278 485 q 316 382 278 422 q 414 342 354 342 q 513 382 475 342 q 550 485 550 422 q 513 588 550 549 q 414 628 475 628 q 316 588 354 628 q 278 485 278 549 z "},"$":{"ha":511,"x_min":19,"x_max":501,"o":"m 144 -139 l 150 -8 q 24 24 83 0 l 24 274 q 197 200 128 200 q 247 215 228 200 q 265 268 265 231 q 255 319 265 296 q 224 367 244 342 l 111 501 q 19 726 19 601 q 58 869 19 811 q 161 957 96 928 l 156 1085 l 358 1085 l 353 978 q 397 970 375 975 q 442 958 419 965 l 442 747 q 369 779 404 767 q 307 792 335 792 q 260 776 278 792 q 242 733 242 761 q 276 658 242 697 l 382 529 q 472 403 442 464 q 501 261 501 342 q 459 101 501 165 q 342 8 417 36 l 347 -139 l 144 -139 z "},"€":{"ha":775,"x_min":33,"x_max":750,"o":"m 610 -11 q 324 72 444 -11 q 154 300 203 156 l 33 300 l 33 449 l 126 449 q 125 467 125 458 q 125 485 125 475 l 126 521 l 33 521 l 33 669 l 154 669 q 324 897 203 814 q 610 981 444 981 q 750 965 676 981 l 750 739 q 677 760 713 754 q 611 767 642 767 q 485 738 542 767 q 394 651 428 708 l 649 651 l 635 521 l 354 521 q 353 503 353 513 q 353 485 353 494 q 353 466 353 475 q 354 449 353 457 l 625 449 l 611 318 l 394 318 q 485 233 428 263 q 611 203 542 203 q 677 210 642 203 q 750 231 713 217 l 750 4 q 610 -11 676 -11 z "},"£":{"ha":761,"x_min":38,"x_max":715,"o":"m 44 135 q 121 244 97 192 q 142 368 144 297 l 38 368 l 38 554 l 117 554 l 103 649 q 120 826 88 751 q 226 941 153 900 q 401 982 299 982 q 621 903 544 982 q 697 682 697 824 l 481 682 q 459 750 481 725 q 400 775 438 775 q 337 744 357 775 q 325 661 317 714 l 342 554 l 625 554 l 625 368 l 363 368 q 319 200 361 282 l 715 200 l 715 0 l 44 0 l 44 135 z "},"¥":{"ha":654,"x_min":10,"x_max":646,"o":"m 211 0 l 211 178 l 24 178 l 24 332 l 201 332 l 181 401 l 24 401 l 24 564 l 133 558 l 10 969 l 240 969 l 328 547 l 332 547 l 425 969 l 646 969 l 524 558 l 631 564 l 631 401 l 476 401 l 456 332 l 631 332 l 631 178 l 444 178 l 444 0 l 211 0 z "},"+":{"ha":767,"x_min":85,"x_max":682,"o":"m 281 140 l 281 350 l 85 350 l 85 547 l 281 547 l 281 757 l 486 757 l 486 547 l 682 547 l 682 350 l 486 350 l 486 140 l 281 140 z "},"−":{"ha":767,"x_min":85,"x_max":682,"o":"m 85 344 l 85 551 l 682 551 l 682 344 l 85 344 z "},"×":{"ha":767,"x_min":92,"x_max":675,"o":"m 532 157 l 381 307 l 233 160 l 94 297 l 243 446 l 92 596 l 235 740 l 386 589 l 533 738 l 672 599 l 525 451 l 675 300 l 532 157 z "},"÷":{"ha":767,"x_min":85,"x_max":682,"o":"m 85 354 l 85 542 l 682 542 l 682 354 l 85 354 m 265 196 q 298 275 265 246 q 383 304 331 304 q 469 275 438 304 q 501 196 501 246 q 469 117 501 146 q 383 88 436 88 q 298 117 331 88 q 265 196 265 146 m 265 701 q 298 781 265 751 q 383 810 331 810 q 469 781 438 810 q 501 701 501 751 q 469 622 501 651 q 383 593 436 593 q 298 622 331 593 q 265 701 265 651 z "},"=":{"ha":767,"x_min":85,"x_max":682,"o":"m 85 493 l 85 667 l 682 667 l 682 493 l 85 493 m 85 225 l 85 400 l 682 400 l 682 225 l 85 225 z "},">":{"ha":767,"x_min":68,"x_max":707,"o":"m 68 86 l 68 300 l 507 443 l 507 446 l 68 588 l 68 807 l 707 572 l 707 319 l 68 86 z "},"<":{"ha":767,"x_min":60,"x_max":699,"o":"m 699 86 l 60 322 l 60 574 l 699 807 l 699 593 l 260 451 l 260 449 l 699 307 l 699 86 z "},"±":{"ha":767,"x_min":85,"x_max":682,"o":"m 281 360 l 281 536 l 85 536 l 85 735 l 281 735 l 281 911 l 486 911 l 486 735 l 682 735 l 682 536 l 486 536 l 486 360 l 281 360 m 85 88 l 85 285 l 682 285 l 682 88 l 85 88 z "},"~":{"ha":781,"x_min":56,"x_max":725,"o":"m 514 335 q 418 353 460 335 q 344 388 376 371 q 282 406 311 406 q 222 339 229 406 l 56 339 q 116 535 56 469 q 267 600 176 600 q 362 583 321 600 q 436 547 403 565 q 497 529 469 529 q 557 596 553 529 l 725 596 q 665 400 725 465 q 514 335 604 335 z "},"¬":{"ha":767,"x_min":85,"x_max":682,"o":"m 478 204 l 478 414 l 85 414 l 85 611 l 682 611 l 682 204 l 478 204 z "},"^":{"ha":775,"x_min":63,"x_max":714,"o":"m 63 617 l 281 1024 l 499 1024 l 714 617 l 503 617 l 390 836 l 388 836 l 272 617 l 63 617 z "},"µ":{"ha":681,"x_min":42,"x_max":640,"o":"m 42 -187 l 42 753 l 256 753 l 256 290 q 276 220 256 246 q 338 194 297 194 q 403 220 379 194 q 426 290 426 246 l 426 753 l 640 753 l 640 0 l 451 0 l 451 63 l 449 63 q 372 9 415 26 q 275 -8 328 -8 q 256 -8 265 -8 q 238 -6 247 -7 l 238 -187 l 42 -187 z "},"%":{"ha":992,"x_min":15,"x_max":976,"o":"m 726 -11 q 606 19 658 -11 q 522 101 553 49 q 492 225 492 154 q 522 351 492 297 q 606 434 553 404 q 726 464 658 464 q 847 434 794 464 q 929 351 899 404 q 960 225 960 297 q 929 101 960 154 q 847 19 899 49 q 726 -11 794 -11 m 15 0 l 286 429 l 478 429 l 272 0 l 15 0 m 31 744 q 61 869 31 815 q 144 952 92 922 q 265 982 197 982 q 386 952 333 982 q 469 869 439 922 q 500 744 500 815 q 469 621 500 674 q 386 538 439 568 q 265 508 333 508 q 144 538 197 508 q 61 621 92 568 q 31 744 31 674 m 206 744 q 222 692 206 710 q 265 674 239 674 q 308 692 292 674 q 325 744 325 710 q 308 797 325 779 q 265 815 292 815 q 222 797 239 815 q 206 744 206 779 m 513 540 l 718 969 l 976 969 l 706 540 l 513 540 m 667 225 q 683 173 667 192 q 726 154 700 154 q 768 173 751 154 q 785 225 785 192 q 768 278 785 260 q 726 297 751 297 q 683 278 700 297 q 667 225 667 260 z "},"‰":{"ha":1421,"x_min":15,"x_max":1408,"o":"m 711 -11 q 552 54 613 -11 q 492 225 492 119 q 552 398 492 332 q 711 464 613 464 q 872 398 811 464 q 932 225 932 332 q 872 54 932 119 q 711 -11 811 -11 m 15 0 l 286 429 l 478 429 l 272 0 l 15 0 m 31 744 q 61 869 31 815 q 144 952 92 922 q 265 982 197 982 q 386 952 333 982 q 469 869 439 922 q 500 744 500 815 q 469 621 500 674 q 386 538 439 568 q 265 508 333 508 q 144 538 197 508 q 61 621 92 568 q 31 744 31 674 m 206 744 q 222 692 206 710 q 265 674 239 674 q 308 692 292 674 q 325 744 325 710 q 308 797 325 779 q 265 815 292 815 q 222 797 239 815 q 206 744 206 779 m 513 540 l 718 969 l 976 969 l 706 540 l 513 540 m 660 225 q 674 173 660 192 q 711 154 689 154 q 749 173 735 154 q 764 225 764 192 q 749 278 764 260 q 711 297 735 297 q 674 278 689 297 q 660 225 660 260 m 968 225 q 1028 398 968 332 q 1189 464 1089 464 q 1349 398 1289 464 q 1408 225 1408 332 q 1349 54 1408 119 q 1189 -11 1289 -11 q 1028 54 1089 -11 q 968 225 968 119 m 1136 225 q 1151 173 1136 192 q 1189 154 1165 154 q 1227 173 1213 154 q 1242 225 1242 192 q 1227 278 1242 260 q 1189 297 1213 297 q 1151 278 1165 297 q 1136 225 1136 260 z "},"↑":{"ha":914,"x_min":26,"x_max":888,"o":"m 354 0 l 354 456 l 361 625 l 358 626 l 26 321 l 26 606 l 457 982 l 888 606 l 888 321 l 557 625 l 554 624 l 561 456 l 561 0 l 354 0 z "},"↗":{"ha":901,"x_min":25,"x_max":863,"o":"m 863 969 l 863 360 l 664 182 l 664 642 l 660 643 l 564 522 l 171 131 l 25 279 l 417 671 l 538 767 l 536 771 l 76 771 l 254 969 l 863 969 z "},"→":{"ha":940,"x_min":18,"x_max":935,"o":"m 274 54 l 576 386 l 575 389 l 408 381 l 18 381 l 18 589 l 408 589 l 576 581 l 578 583 l 274 915 l 558 915 l 935 485 l 558 54 l 274 54 z "},"↘":{"ha":901,"x_min":25,"x_max":863,"o":"m 254 0 l 76 199 l 536 199 l 538 203 l 417 299 l 25 690 l 171 839 l 564 447 l 660 326 l 664 328 l 664 788 l 863 610 l 863 0 l 254 0 z "},"↓":{"ha":914,"x_min":26,"x_max":888,"o":"m 560 969 l 560 514 l 553 344 l 556 343 l 888 649 l 888 364 l 457 -12 l 26 364 l 26 649 l 357 344 l 360 346 l 353 514 l 353 969 l 560 969 z "},"↙":{"ha":901,"x_min":39,"x_max":876,"o":"m 39 0 l 39 610 l 238 788 l 238 328 l 242 326 l 338 447 l 731 839 l 876 690 l 485 299 l 364 203 l 365 199 l 825 199 l 647 0 l 39 0 z "},"←":{"ha":940,"x_min":6,"x_max":922,"o":"m 667 915 l 364 583 l 365 581 l 532 589 l 922 589 l 922 381 l 532 381 l 364 389 l 363 386 l 667 54 l 382 54 l 6 485 l 382 915 l 667 915 z "},"↖":{"ha":901,"x_min":39,"x_max":876,"o":"m 647 969 l 825 771 l 365 771 l 364 767 l 485 671 l 876 279 l 731 131 l 338 522 l 242 643 l 238 642 l 238 182 l 39 360 l 39 969 l 647 969 z "},"↔":{"ha":1538,"x_min":7,"x_max":1531,"o":"m 382 54 l 7 485 l 382 915 l 668 915 l 364 583 l 365 581 l 532 589 l 1004 589 l 1174 581 l 1175 583 l 869 915 l 1156 915 l 1531 485 l 1156 54 l 869 54 l 1174 386 l 1172 389 l 1004 381 l 532 381 l 364 389 l 363 386 l 668 54 l 382 54 z "},"↕":{"ha":956,"x_min":47,"x_max":910,"o":"m 478 -222 l 47 129 l 47 400 l 379 119 l 382 121 l 365 314 l 365 603 l 382 797 l 379 799 l 47 517 l 47 788 l 478 1139 l 910 788 l 910 517 l 578 797 l 575 796 l 592 603 l 592 314 l 575 119 l 578 118 l 910 400 l 910 129 l 478 -222 z "},"̈":{"ha":0,"x_min":175,"x_max":658,"o":"m 278 803 q 203 831 232 803 q 175 901 175 858 q 203 972 175 944 q 278 1000 232 1000 q 353 973 325 1000 q 381 901 381 946 q 351 831 381 858 q 278 803 322 803 m 453 901 q 482 972 453 944 q 556 1000 511 1000 q 631 973 603 1000 q 658 901 658 946 q 630 831 658 858 q 556 803 601 803 q 482 831 511 803 q 453 901 453 858 z "},"̇":{"ha":0,"x_min":293,"x_max":540,"o":"m 417 807 q 327 838 361 807 q 293 919 293 868 q 327 1002 293 972 q 417 1032 361 1032 q 507 1002 474 1032 q 540 919 540 972 q 507 838 540 868 q 417 807 474 807 z "},"̀":{"ha":0,"x_min":189,"x_max":518,"o":"m 331 811 l 189 1038 l 417 1038 l 518 811 l 331 811 z "},"́":{"ha":0,"x_min":318,"x_max":643,"o":"m 318 811 l 419 1038 l 643 1038 l 503 811 l 318 811 z "},"̋":{"ha":0,"x_min":207,"x_max":746,"o":"m 207 811 l 282 1038 l 471 1038 l 368 811 l 207 811 m 451 811 l 550 1038 l 746 1038 l 618 811 l 451 811 z "},"̂":{"ha":0,"x_min":154,"x_max":676,"o":"m 154 811 l 315 1038 l 518 1038 l 676 811 l 489 811 l 418 907 l 415 907 l 343 811 l 154 811 z "},"̌":{"ha":0,"x_min":154,"x_max":676,"o":"m 313 811 l 154 1038 l 342 1038 l 413 940 l 415 940 l 488 1038 l 676 1038 l 515 811 l 313 811 z "},"̆":{"ha":0,"x_min":178,"x_max":653,"o":"m 414 803 q 246 865 308 803 q 178 1038 183 928 l 331 1038 q 358 974 336 997 q 414 951 379 951 q 472 974 450 951 q 499 1038 493 997 l 653 1038 q 584 865 647 928 q 414 803 521 803 z "},"̊":{"ha":0,"x_min":247,"x_max":586,"o":"m 417 799 q 295 844 343 799 q 247 960 247 889 q 295 1076 247 1031 q 417 1122 343 1122 q 538 1076 490 1122 q 586 960 586 1031 q 538 844 586 889 q 417 799 490 799 m 357 960 q 374 917 357 933 q 417 900 390 900 q 460 917 443 900 q 476 960 476 933 q 460 1003 476 986 q 417 1019 443 1019 q 374 1003 390 1019 q 357 960 357 986 z "},"̃":{"ha":0,"x_min":140,"x_max":693,"o":"m 519 810 q 440 824 475 810 q 378 853 406 839 q 328 868 351 868 q 278 813 285 868 l 140 813 q 190 968 140 915 q 314 1021 239 1021 q 394 1006 360 1021 q 455 977 428 992 q 506 963 482 963 q 556 1018 549 963 l 693 1018 q 644 863 693 917 q 519 810 594 810 z "},"̄":{"ha":0,"x_min":203,"x_max":631,"o":"m 203 825 l 203 983 l 631 983 l 631 825 l 203 825 z "},"̒":{"ha":0,"x_min":315,"x_max":539,"o":"m 315 811 l 372 1038 l 539 1038 l 511 811 l 315 811 z "},"̦":{"ha":0,"x_min":292,"x_max":514,"o":"m 292 -243 l 319 -51 l 514 -51 l 457 -243 l 292 -243 z "},"̧":{"ha":0,"x_min":193,"x_max":453,"o":"m 389 -215 l 193 -164 l 306 83 l 453 42 l 389 -215 z "},"̨":{"ha":0,"x_min":171,"x_max":421,"o":"m 333 -243 q 210 -203 249 -243 q 171 -108 171 -162 q 216 -2 171 -46 q 338 67 261 42 l 421 0 q 360 -21 383 0 q 338 -67 338 -42 q 378 -101 338 -101 q 399 -99 389 -101 q 421 -92 410 -96 l 421 -232 q 333 -243 372 -243 z "},"¨":{"ha":833,"x_min":175,"x_max":658,"o":"m 278 803 q 203 831 232 803 q 175 901 175 858 q 203 972 175 944 q 278 1000 232 1000 q 353 973 325 1000 q 381 901 381 946 q 351 831 381 858 q 278 803 322 803 m 453 901 q 482 972 453 944 q 556 1000 511 1000 q 631 973 603 1000 q 658 901 658 946 q 630 831 658 858 q 556 803 601 803 q 482 831 511 803 q 453 901 453 858 z "},"˙":{"ha":833,"x_min":293,"x_max":540,"o":"m 417 807 q 327 838 361 807 q 293 919 293 868 q 327 1002 293 972 q 417 1032 361 1032 q 507 1002 474 1032 q 540 919 540 972 q 507 838 540 868 q 417 807 474 807 z "},"`":{"ha":833,"x_min":189,"x_max":518,"o":"m 331 811 l 189 1038 l 417 1038 l 518 811 l 331 811 z "},"´":{"ha":833,"x_min":318,"x_max":643,"o":"m 318 811 l 419 1038 l 643 1038 l 503 811 l 318 811 z "},"˝":{"ha":833,"x_min":207,"x_max":746,"o":"m 207 811 l 282 1038 l 471 1038 l 368 811 l 207 811 m 451 811 l 550 1038 l 746 1038 l 618 811 l 451 811 z "},"ˆ":{"ha":833,"x_min":154,"x_max":676,"o":"m 154 811 l 315 1038 l 518 1038 l 676 811 l 489 811 l 418 907 l 415 907 l 343 811 l 154 811 z "},"ˇ":{"ha":833,"x_min":154,"x_max":676,"o":"m 313 811 l 154 1038 l 342 1038 l 413 940 l 415 940 l 488 1038 l 676 1038 l 515 811 l 313 811 z "},"˘":{"ha":833,"x_min":178,"x_max":653,"o":"m 414 803 q 246 865 308 803 q 178 1038 183 928 l 331 1038 q 358 974 336 997 q 414 951 379 951 q 472 974 450 951 q 499 1038 493 997 l 653 1038 q 584 865 647 928 q 414 803 521 803 z "},"˚":{"ha":833,"x_min":247,"x_max":586,"o":"m 417 799 q 295 844 343 799 q 247 960 247 889 q 295 1076 247 1031 q 417 1122 343 1122 q 538 1076 490 1122 q 586 960 586 1031 q 538 844 586 889 q 417 799 490 799 m 357 960 q 374 917 357 933 q 417 900 390 900 q 460 917 443 900 q 476 960 476 933 q 460 1003 476 986 q 417 1019 443 1019 q 374 1003 390 1019 q 357 960 357 986 z "},"˜":{"ha":833,"x_min":140,"x_max":693,"o":"m 519 810 q 440 824 475 810 q 378 853 406 839 q 328 868 351 868 q 278 813 285 868 l 140 813 q 190 968 140 915 q 314 1021 239 1021 q 394 1006 360 1021 q 455 977 428 992 q 506 963 482 963 q 556 1018 549 963 l 693 1018 q 644 863 693 917 q 519 810 594 810 z "},"¯":{"ha":833,"x_min":203,"x_max":631,"o":"m 203 825 l 203 983 l 631 983 l 631 825 l 203 825 z "},"¸":{"ha":833,"x_min":193,"x_max":453,"o":"m 389 -215 l 193 -164 l 306 83 l 453 42 l 389 -215 z "},"˛":{"ha":833,"x_min":171,"x_max":421,"o":"m 333 -243 q 210 -203 249 -243 q 171 -108 171 -162 q 216 -2 171 -46 q 338 67 261 42 l 421 0 q 360 -21 383 0 q 338 -67 338 -42 q 378 -101 338 -101 q 399 -99 389 -101 q 421 -92 410 -96 l 421 -232 q 333 -243 372 -243 z "}}}
